<?xml version="1.0" standalone="no"?>
<!DOCTYPE svg PUBLIC "-//W3C//DTD SVG 1.1//EN" "http://www.w3.org/Graphics/SVG/1.1/DTD/svg11.dtd" >
<svg xmlns="http://www.w3.org/2000/svg" xmlns:xlink="http://www.w3.org/1999/xlink" version="1.1">
<metadata></metadata>
<defs>
<font id="apple_chanceryitalic" horiz-adv-x="1139" >
<font-face units-per-em="2048" ascent="1638" descent="-410" />
<missing-glyph horiz-adv-x="569" />
<glyph horiz-adv-x="0" />
<glyph unicode="&#xd;" horiz-adv-x="569" />
<glyph unicode=" "  horiz-adv-x="569" />
<glyph unicode="&#x09;" horiz-adv-x="569" />
<glyph unicode="&#xa0;" horiz-adv-x="569" />
<glyph unicode="!" horiz-adv-x="524" d="M136 99l150 144q75 -60 114 -144l-145 -141q-48 94 -119 141zM239 1350l182 71q8 -119 8 -182q0 -150 -19 -359q-19 -208 -35 -392l-128 -98q29 320 29 533q0 256 -37 427z" />
<glyph unicode="&#x22;" horiz-adv-x="713" d="M224 764v506l145 102v-510zM560 764v506l145 102v-510z" />
<glyph unicode="#" d="M72 314l77 80h256l60 208h-311l77 80h259l100 327l110 109l-133 -436h211l100 327l110 109l-133 -436h320l-74 -80h-271l-64 -208h328l-74 -80h-274l-98 -315l-108 -109l129 424h-211l-98 -315l-108 -109l129 424h-309zM478 394h215l60 208h-211z" />
<glyph unicode="$" horiz-adv-x="795" d="M38 69l106 96q34 -33 112 -66q78 -32 128 -32l45 412q-101 60 -160 129q-58 69 -58 134q0 202 276 259l27 242l72 67l-34 -304q34 2 57 2q91 0 215 -35l-94 -93q-76 59 -185 72l-37 -344q232 -162 232 -279q0 -100 -90 -193q-89 -92 -209 -108l-28 -266l-72 -70l35 320 q-46 -7 -85 -7q-116 0 -253 64zM324 823q0 -89 125 -160l34 291q-159 0 -159 -131zM447 67q180 22 180 182q0 80 -140 187z" />
<glyph unicode="%" horiz-adv-x="1503" d="M176 599q0 176 129 305q129 130 265 130q176 0 176 -198q0 -162 -124 -295q-123 -132 -270 -132q-80 0 -128 54q-48 55 -48 136zM282 685q0 -211 165 -211q70 0 131 74q62 74 62 208q0 107 -44 160q-43 53 -106 53q-88 0 -148 -80q-60 -79 -60 -204zM336 -156l796 1238 l132 87l-798 -1243zM854 164q0 176 126 305q126 130 268 130q176 0 176 -198q0 -162 -121 -295q-121 -132 -273 -132q-80 0 -128 54q-48 55 -48 136zM960 250q0 -211 165 -211q76 0 134 76q59 77 59 206q0 107 -44 160q-43 53 -106 53q-88 0 -148 -81q-60 -80 -60 -203z" />
<glyph unicode="&#x26;" horiz-adv-x="1812" d="M118 294q0 168 127 293q127 126 286 191q-61 153 -61 259q0 144 96 246q97 103 260 103q220 0 220 -188q0 -109 -99 -210q-99 -100 -259 -182l91 -184q76 67 170 114q94 48 287 48h208q140 0 233 38t93 146q0 60 -59 123l113 109q41 -51 41 -140q0 -161 -138 -282 t-465 -129q-44 -226 -242 -428q100 -142 189 -142q59 0 144 96q16 -11 16 -33q0 -54 -88 -119q-87 -65 -152 -65q-91 0 -218 161q-210 -161 -430 -161q-175 0 -269 95q-94 96 -94 241zM297 362q0 -138 89 -228t231 -90q140 0 265 108q-169 231 -325 593q-260 -129 -260 -383 zM598 1135q0 -120 78 -284q232 136 232 304q0 67 -45 119t-114 52q-151 0 -151 -191zM801 588q73 -139 193 -328q53 68 100 188q48 120 48 201q-247 0 -341 -61z" />
<glyph unicode="'" horiz-adv-x="377" d="M224 764v506l145 102v-510z" />
<glyph unicode="(" horiz-adv-x="696" d="M199 796q0 -758 676 -1228l25 36q-544 429 -544 1121q0 524 338 959l-128 129q-367 -445 -367 -1017z" />
<glyph unicode=")" horiz-adv-x="696" d="M-62 -396q544 429 544 1121q0 524 -338 959l128 129q367 -445 367 -1017q0 -758 -676 -1228z" />
<glyph unicode="*" horiz-adv-x="913" d="M116 701l343 264q-147 95 -285 257l120 71q74 -101 214 -213l35 274l107 67l-37 -331l239 176l128 27l-379 -287q201 -124 354 -188l-140 -85q-132 60 -224 134l-28 -243l-111 -67l41 361l-237 -181z" />
<glyph unicode="+" d="M96 446l119 123h364l39 347l130 117l-51 -464h467l-121 -123h-363l-39 -343l-129 -121l53 464h-469z" />
<glyph unicode="," horiz-adv-x="424" d="M67 -342q153 109 153 244q0 114 -124 194l143 141q121 -94 121 -221q0 -188 -267 -387z" />
<glyph unicode="-" horiz-adv-x="741" d="M128 420l124 129h468l-128 -129h-464z" />
<glyph unicode="." horiz-adv-x="424" d="M96 97l150 144q26 -19 62 -67q37 -47 52 -77l-145 -141q-48 94 -119 141z" />
<glyph unicode="/" horiz-adv-x="889" d="M-215 -432l1390 2155l194 85l-1390 -2160z" />
<glyph unicode="0" horiz-adv-x="1057" d="M144 301q0 289 197 511t415 222q122 0 200 -93q78 -92 78 -247q0 -268 -192 -494q-191 -226 -420 -226q-129 0 -204 94q-74 95 -74 233zM298 441q0 -179 76 -271q77 -91 188 -91q130 0 224 144q94 145 94 347q0 182 -80 270q-80 89 -179 89q-142 0 -233 -142 q-90 -141 -90 -346z" />
<glyph unicode="1" horiz-adv-x="883" d="M120 0l98 78h180l91 832q-127 -95 -290 -180l12 95q180 66 439 241l-110 -988h252l-98 -78h-574z" />
<glyph unicode="2" horiz-adv-x="1145" d="M89 0l125 123q272 65 442 222q170 158 170 335q0 110 -77 179q-76 70 -204 70q-156 0 -287 -112q-8 22 -8 26q0 56 158 123q159 68 282 68q139 0 225 -72t86 -184q0 -162 -178 -351t-405 -304l590 -30l-120 -119z" />
<glyph unicode="3" horiz-adv-x="944" d="M10 -270l120 130q125 -64 265 -64q123 0 214 71q91 72 91 192q0 128 -115 213q-114 85 -338 85q-33 0 -76 -10l120 119h88q316 73 316 294q0 81 -53 136q-53 56 -151 56q-149 0 -243 -96q-10 16 -10 26q0 51 107 101q108 51 230 51q119 0 201 -61q82 -60 82 -161 q0 -195 -367 -353q331 -52 331 -302q0 -176 -173 -320t-401 -144q-128 0 -238 37z" />
<glyph unicode="4" horiz-adv-x="1266" d="M58 140l992 936l-96 -877l247 -20l-115 -126l-147 13l-35 -314l-149 -59l43 385zM288 260l522 -46l67 597z" />
<glyph unicode="5" horiz-adv-x="989" d="M38 -274l127 136q122 -64 247 -64q152 0 237 80q86 80 86 192q0 149 -123 236q-122 88 -321 88q-52 0 -92 -8l74 469l147 153h563l-120 -121h-460l-58 -346q496 -30 496 -354q0 -207 -165 -351q-165 -143 -393 -143q-146 0 -245 33z" />
<glyph unicode="6" horiz-adv-x="1161" d="M189 426q0 351 256 621q257 271 561 271q124 0 234 -37l-132 -133q-113 80 -244 80q-230 0 -375 -237q-144 -236 -144 -463v-56q73 128 193 208q121 81 254 81q117 0 195 -79t78 -216q0 -191 -151 -342q-151 -150 -338 -150q-176 0 -282 129q-105 130 -105 323zM357 373 q67 -316 315 -316q114 0 187 80q74 81 74 197q0 133 -72 223q-71 91 -189 91q-233 0 -315 -275z" />
<glyph unicode="7" horiz-adv-x="1042" d="M147 -307q30 152 168 411q138 260 552 714l58 61l-714 16l130 129l814 -16l-134 -132q-123 -121 -234 -245t-206 -269q-212 -326 -237 -597z" />
<glyph unicode="8" horiz-adv-x="1059" d="M132 279q0 225 338 425q-93 84 -143 148q-49 64 -49 133q0 127 123 230q124 103 283 103q119 0 201 -66q82 -65 82 -177q0 -167 -279 -356q260 -207 260 -329q0 -161 -155 -289q-155 -127 -323 -127q-146 0 -242 91t-96 214zM276 362q0 -114 95 -199q96 -84 224 -84 q98 0 165 63q68 63 68 143q0 150 -328 392q-120 -88 -172 -163t-52 -152zM384 1078q0 -123 269 -327q170 82 170 267q0 106 -69 167q-68 61 -169 61q-88 0 -145 -45q-56 -45 -56 -123z" />
<glyph unicode="9" horiz-adv-x="1161" d="M29 -347l132 131q110 -80 241 -80q195 0 317 151q123 151 178 368q27 106 27 233q-74 -127 -195 -207q-120 -80 -252 -80q-128 0 -201 87q-72 88 -72 211q0 191 151 340q152 149 337 149q176 0 281 -127t105 -318q0 -357 -257 -626q-256 -269 -558 -269q-124 0 -234 37z M336 597q0 -140 73 -229q73 -88 187 -88q233 0 314 278q-67 315 -314 315q-114 0 -187 -82q-73 -81 -73 -194z" />
<glyph unicode=":" horiz-adv-x="424" d="M96 97l150 144q26 -19 62 -67q37 -47 52 -77l-145 -141q-48 94 -119 141zM176 814l150 144q26 -19 62 -67q37 -47 52 -77l-145 -141q-48 94 -119 141z" />
<glyph unicode=";" horiz-adv-x="424" d="M67 -342q153 109 153 244q0 114 -124 194l143 141q121 -94 121 -221q0 -188 -267 -387zM164 814l150 144q26 -19 62 -67q37 -47 52 -77l-145 -141q-48 94 -119 141z" />
<glyph unicode="&#x3c;" d="M112 446l106 106l950 480l-158 -163l-729 -354q357 -131 745 -441l-94 -92q-314 270 -820 464z" />
<glyph unicode="=" d="M80 305l133 111h907l-119 -111h-921zM109 608l133 111h905l-119 -111h-919z" />
<glyph unicode="&#x3e;" d="M73 -23l158 161l729 354q-362 132 -747 441l96 94q313 -271 820 -464l-106 -106z" />
<glyph unicode="?" horiz-adv-x="745" d="M145 99l150 144q26 -19 62 -67q37 -47 52 -77l-145 -141q-48 94 -119 141zM211 1303q0 40 113 79q114 39 225 39q289 0 289 -221q0 -130 -113 -218q-112 -88 -206 -157q-127 -116 -127 -240q0 -42 8 -64l-165 -150q-16 36 -16 84q0 115 56 196q56 82 168 175 q103 83 152 162t49 152q0 205 -214 205q-92 0 -211 -64q-8 14 -8 22z" />
<glyph unicode="@" horiz-adv-x="1417" d="M144 423q0 402 250 682q250 281 621 281q448 0 448 -443q0 -252 -121 -435t-281 -183q-142 0 -142 212v69q-44 -89 -146 -189q-102 -99 -180 -99q-106 0 -106 171q0 206 143 369q143 164 340 164q57 0 109 -10q-48 -334 -48 -449q0 -92 23 -121t82 -29q99 0 157 126 t58 280q0 491 -425 491q-288 0 -476 -222q-187 -222 -187 -589q0 -462 317 -462q180 0 288 155q19 -21 19 -35q0 -69 -138 -137q-137 -68 -254 -68q-351 0 -351 471zM618 556q0 -103 61 -103q63 0 126 69q63 70 98 153q36 104 48 240q-59 9 -109 9q-103 0 -164 -103 q-60 -102 -60 -265z" />
<glyph unicode="A" horiz-adv-x="1468" d="M0 1386zM120 832q0 226 189 376t676 150q138 0 332 -12q-77 -121 -77 -442q0 -400 59 -654q16 -73 35 -97q20 -24 64 -24q56 0 120 33q6 -9 6 -27q0 -27 -32 -42q-64 -32 -173 -79q-109 -46 -127 -56q-72 224 -100 532l-76 -56h-339q-64 -155 -130 -225 q-65 -69 -120 -107l208 -11l-110 -112l-402 13l133 120l91 -6q82 66 134 178q53 112 130 315l71 176q61 168 146 280t223 179q-146 30 -324 30q-459 0 -459 -303q0 -97 49 -187l-155 -152q-42 109 -42 210zM722 544h368q-14 226 -14 301q0 240 31 368q-178 -97 -297 -424 q-37 -104 -88 -245zM1119 1498zM1239 0z" />
<glyph unicode="B" horiz-adv-x="1477" d="M121 771q0 261 218 438q219 177 606 177q462 0 462 -270q0 -220 -296 -358q288 -120 288 -359q0 -186 -193 -303q-192 -117 -525 -117q-165 0 -284 15q-118 15 -201 24l131 141q56 -18 137 -33q78 43 108 107q40 82 66 303l83 744q-180 -9 -322 -101q-141 -92 -141 -253 q0 -98 45 -165l-159 -143q-23 65 -23 153zM543 115q214 -36 389 -36q319 0 319 248q0 129 -92 228q-91 100 -199 124h-142l-24 -211q-24 -192 -92 -254q-38 -33 -159 -99zM827 758q62 -4 100 -4q52 0 111 5q210 118 210 298q0 229 -362 229z" />
<glyph unicode="C" horiz-adv-x="1276" d="M146 538q0 361 237 604q237 244 578 244q201 0 364 -65l-64 -140q-16 -32 -34 -66q-17 -33 -45 -33h-23q15 22 15 54q0 62 -88 113q-87 51 -204 51q-256 0 -403 -199q-146 -199 -146 -493q0 -255 112 -392q113 -137 283 -137q130 0 249 73q120 73 175 152l27 38 q18 0 18 -30q0 -92 -184 -223q-183 -131 -403 -131q-211 0 -338 149q-126 150 -126 431zM634 0zM952 1498z" />
<glyph unicode="D" horiz-adv-x="1726" d="M0 1386zM122 771q0 300 236 457q236 158 673 158q720 0 720 -511q0 -357 -266 -627q-265 -269 -755 -269q-281 0 -531 41l139 147q63 -23 146 -35q62 47 85 93q28 59 44 202l95 848q-202 -17 -325 -104t-123 -219q0 -93 47 -179l-165 -155q-20 57 -20 153zM562 122 q222 -28 410 -28q249 0 360 112q232 242 232 575q0 268 -174 392q-174 125 -470 125h-45l-88 -786q-17 -147 -37 -206q-17 -52 -60 -92q-32 -30 -128 -92zM1025 1498z" />
<glyph unicode="E" horiz-adv-x="1497" d="M0 1386zM26 29l182 139q59 -15 230 -33q94 32 135 98q42 66 58 198l90 803h-52q-192 0 -299 -83q-107 -82 -107 -201q0 -116 46 -186l-162 -156q-22 69 -22 164q0 236 179 404q180 168 528 168h353q152 0 366 12l-78 -186q-45 -112 -85 -112q-16 0 -18 4q13 36 13 72 q0 53 -44 76q-44 24 -214 24h-97h-143l-54 -480h212q187 0 271 17q-120 -144 -226 -144q-87 0 -269 17l-20 -174q-22 -166 -107 -242t-143 -102q328 -33 504 -33q140 0 227 36q88 36 169 108q19 -11 19 -35q0 -50 -150 -147q-149 -97 -310 -97q-154 0 -499 31t-483 40z M1052 1498zM1078 0z" />
<glyph unicode="F" horiz-adv-x="1436" d="M119 772q0 241 183 406q183 166 528 166h358q162 0 365 12l-76 -186q-43 -112 -85 -112q-16 0 -20 4q13 36 13 72q0 53 -49 76q-48 24 -235 24h-86h-144l-59 -529h246q180 0 276 17q-69 -76 -117 -110t-112 -34q-69 0 -306 17l-16 -145q-21 -171 -83 -240 q-61 -69 -151 -99l271 -15l-120 -117l-467 23l127 125l110 -12q120 79 147 319l90 800h-50q-186 0 -293 -83q-107 -82 -107 -201q0 -116 46 -186l-159 -156q-25 69 -25 164z" />
<glyph unicode="G" horiz-adv-x="1356" d="M138 538q0 361 238 604q239 244 577 244q201 0 364 -68l-65 -141q-15 -33 -32 -67t-45 -34q-12 0 -24 2q15 22 15 54q0 70 -90 119q-89 49 -206 49q-252 0 -399 -199q-146 -199 -146 -493q0 -253 99 -391t294 -138q167 0 330 141l41 361h-173q-154 0 -269 -33 q63 113 113 133q51 21 137 21h74h300q-39 -135 -51 -248l-36 -344q-23 -207 -53 -289q-30 -81 -75 -149q-52 -78 -166 -155t-279 -77q-217 0 -332 143l148 119q104 -176 294 -176q116 0 189 74t105 333l23 185q-241 -160 -439 -160q-213 0 -337 150q-124 151 -124 430z M760 0zM944 1498z" />
<glyph unicode="H" horiz-adv-x="1735" d="M110 782q0 263 199 412q200 150 496 150h88q-39 -154 -59 -345l-26 -236h552q31 286 71 455q80 325 253 475q174 150 355 150q105 0 179 -31l-149 -146q-84 58 -167 58q-160 0 -234 -158q-74 -157 -135 -747l-23 -220q-22 -217 -22 -341q0 -89 73 -89q58 0 134 44 q5 0 5 -24q0 -25 -36 -44q-36 -18 -86 -40l-286 -130q0 243 55 669h-553l-14 -125q-15 -146 -35 -212q-18 -58 -55 -98q-66 -68 -151 -98l239 -15l-120 -117l-435 23l124 125l113 -12q120 80 147 320l88 788h-49q-191 0 -295 -70q-103 -70 -103 -197q0 -92 47 -178 l-162 -154q-23 69 -23 158z" />
<glyph unicode="I" horiz-adv-x="936" d="M0 1386zM120 782q0 250 193 406t513 156h86q-39 -155 -59 -347l-54 -481q-17 -148 -36 -208t-60 -98q-68 -69 -154 -99l287 -15l-120 -117l-483 23l124 125l113 -12q127 80 156 320l88 788h-50q-211 0 -309 -75q-97 -74 -97 -192q0 -92 47 -178l-162 -154q-23 69 -23 158 zM620 0zM816 1498z" />
<glyph unicode="J" horiz-adv-x="932" d="M-176 -225l160 122q51 -256 278 -256q125 0 204 96t111 398l122 1088h-49q-207 0 -303 -75q-96 -74 -96 -192q0 -92 47 -178l-162 -154q-23 69 -23 158q0 263 199 412q200 150 497 150h87q-37 -155 -59 -350l-87 -777q-38 -330 -205 -497t-393 -167q-229 0 -328 222z" />
<glyph unicode="K" horiz-adv-x="1640" d="M120 782q0 256 201 409t505 153h86q-39 -155 -59 -347l-54 -481q-17 -148 -36 -208t-60 -98q-68 -69 -154 -99l239 -15l-120 -117l-435 23l124 125l113 -12q127 80 156 320l88 788h-50q-202 0 -304 -75q-102 -74 -102 -192q0 -92 47 -178l-162 -154q-23 69 -23 158z M824 736q160 224 379 414t395 190q69 0 143 -20l-131 -142q-57 35 -123 35q-155 0 -294 -139q-138 -138 -208 -295q139 -256 260 -409q122 -153 142 -176q54 -57 93 -57q85 0 152 112q26 -20 26 -39q0 -58 -89 -140q-89 -81 -149 -81q-98 0 -287 253q-188 254 -309 494z M946 0z" />
<glyph unicode="L" horiz-adv-x="1311" d="M-10 25l169 131q42 -8 135 -18q99 39 149 135q50 97 54 296l5 208q6 275 172 442q167 167 385 167q77 0 163 -37l-148 -146q-89 60 -169 60q-119 0 -170 -91t-57 -278l-7 -205q-6 -210 -39 -308q-32 -97 -97 -163q-56 -57 -129 -93q327 -34 485 -34q269 0 410 144 q17 -12 17 -30q0 -54 -148 -151q-147 -96 -303 -96q-244 0 -877 67zM0 1386zM680 0zM986 1498z" />
<glyph unicode="M" horiz-adv-x="2030" d="M120 769q0 247 189 411t470 164q64 0 133 -6v-39q0 -151 155 -553q79 -209 138 -398q183 297 303 500q97 170 226 408l194 121q-82 -360 -82 -1070q0 -136 23 -179t91 -43q57 0 122 21q10 -13 10 -23q0 -42 -123 -65q-123 -22 -282 -56q-5 129 -5 221q0 462 44 846 q-123 -154 -265 -397q-146 -252 -211 -421l-138 -148q-21 204 -156 538q-71 175 -95 239q-47 129 -56 194l-90 -523q-42 -255 -114 -323q-19 -18 -97 -71l254 -21l-128 -117l-430 23l130 125l110 -10q72 47 108 150q23 64 55 245l125 705h-57q-413 0 -413 -271 q0 -95 46 -181l-162 -157q-22 70 -22 161z" />
<glyph unicode="N" horiz-adv-x="1806" d="M0 1386zM122 769q0 247 187 411q188 164 467 164q46 0 129 -6q-3 -33 -3 -53q0 -218 291 -541q204 -228 291 -370l100 729q69 393 249 566q181 174 367 174q102 0 173 -31l-149 -146q-92 52 -157 52q-155 0 -223 -122q-67 -121 -101 -297q-24 -123 -68 -481l-71 -585 l-129 -261q-28 105 -48 167q-20 63 -58 127q-70 118 -263 340q-206 234 -273 400l-57 -489q-17 -146 -37 -211q-18 -55 -57 -96q-57 -61 -103 -93l222 -21l-120 -117l-435 23l129 125l108 -10q67 52 91 92q38 65 54 200l91 808h-56q-403 0 -403 -271q0 -94 47 -181 l-163 -157q-22 70 -22 161zM1045 0zM1313 1498z" />
<glyph unicode="O" horiz-adv-x="1405" d="M151 510q0 355 236 615q237 261 557 261q210 0 331 -149t121 -403q0 -380 -245 -628t-553 -248q-207 0 -327 157t-120 395zM340 614q0 -238 104 -406q104 -167 272 -167q226 0 358 206q133 207 133 490q0 241 -107 404q-106 164 -276 164q-207 0 -346 -196 q-138 -196 -138 -495zM944 1498z" />
<glyph unicode="P" horiz-adv-x="1370" d="M122 771q0 245 211 430q212 185 616 185q490 0 490 -332q0 -208 -200 -355q-200 -146 -440 -146q-32 -291 -98 -345q-79 -67 -152 -98l255 -14l-120 -117l-451 23l124 125l113 -12q73 54 106 138q34 84 57 287l83 744q-456 -85 -456 -356q0 -99 45 -166l-158 -144 q-25 65 -25 153zM810 655q54 -10 103 -10q370 0 370 336q0 315 -401 315z" />
<glyph unicode="Q" horiz-adv-x="1417" d="M143 510q0 342 227 609q228 267 566 267q210 0 331 -155q121 -154 121 -398q0 -307 -129 -483q-128 -175 -284 -286q487 -477 867 -477q76 0 128 47q52 48 52 120q0 31 -15 68l173 98q8 -21 8 -50q0 -139 -130 -245q-130 -105 -296 -105q-209 0 -490 144t-482 327 q-121 -33 -212 -33q-194 0 -315 158q-120 158 -120 394zM332 614q0 -247 101 -403q102 -155 303 -170l136 141l59 -72q268 193 268 626q0 242 -107 405q-106 164 -276 164q-207 0 -346 -196q-138 -196 -138 -495z" />
<glyph unicode="R" horiz-adv-x="1612" d="M0 1386zM119 771q0 259 218 437q219 178 611 178q492 0 492 -319q0 -222 -300 -391q79 -174 198 -368t191 -194q38 0 71 30q33 31 64 114q33 -20 33 -45q0 -67 -88 -160q-87 -93 -136 -93q-79 0 -207 161q-127 162 -284 497l-180 -2l-20 -178q-19 -176 -84 -231 q-78 -67 -149 -97l239 -14l-120 -117l-435 23l124 125l113 -12q122 79 148 324l95 845q-456 -85 -456 -356q0 -99 45 -166l-158 -144q-25 65 -25 153zM813 709q97 -12 151 -12q59 0 131 12q176 141 176 311q0 272 -393 272zM944 1498zM974 0z" />
<glyph unicode="S" horiz-adv-x="1075" d="M85 176l169 102q40 -245 302 -245q128 0 206 70t78 178q0 141 -193 294l-139 110q-114 94 -165 165t-51 156q0 175 134 277q134 103 334 103q178 0 305 -76l-68 -154q-40 -90 -68 -90h-28q16 55 16 86q0 66 -68 112q-68 47 -178 47q-243 0 -243 -196q0 -72 44 -128 q45 -55 163 -150l160 -131q193 -160 193 -323q0 -181 -154 -303t-386 -122q-284 0 -363 218zM482 0zM765 1498z" />
<glyph unicode="T" horiz-adv-x="1561" d="M0 1386zM125 782q0 250 189 406t503 156h612q363 0 363 230q0 97 -57 151l128 118q44 -60 44 -156q0 -197 -179 -332q-178 -134 -437 -134h-280l-79 -703q-17 -149 -35 -210q-18 -60 -55 -98q-66 -70 -152 -100l287 -14l-120 -117l-483 23l127 125l110 -12 q122 80 148 320l88 786h-169q-416 0 -416 -266q0 -91 47 -176l-162 -155q-22 69 -22 158zM714 0zM954 1498z" />
<glyph unicode="U" horiz-adv-x="1749" d="M0 1386zM128 782q0 267 201 414q202 148 488 148h151q-80 -153 -141 -389q-61 -235 -61 -478q0 -409 256 -409q169 0 265 151q74 118 103 246q30 128 52 340l52 474l200 102q-46 -144 -72 -395l-41 -386q-28 -256 -28 -329q0 -104 76 -104q49 0 135 48q4 -15 4 -31 q0 -28 -64 -59l-343 -167l36 336q-210 -336 -459 -336q-346 0 -346 509q0 372 166 756h-100q-392 0 -392 -267q0 -94 46 -178l-162 -154q-22 69 -22 158zM1295 1498zM1437 0z" />
<glyph unicode="V" horiz-adv-x="1413" d="M90 1057q0 73 86 201t218 128q86 0 148 -68q63 -67 178 -485q32 -121 133 -596q53 70 183 263q260 397 260 591q0 84 -77 135l148 160q100 -56 100 -176q0 -152 -212 -477l-175 -274q-158 -240 -189 -328l-177 -173q-47 367 -149 754q-83 312 -130 414q-46 102 -121 102 q-135 0 -189 -208q-35 0 -35 37z" />
<glyph unicode="W" horiz-adv-x="1839" d="M110 1064q0 100 96 211q97 111 192 111q149 0 204 -257q55 -256 69 -792q115 228 237 467q123 239 162 370l156 149q-8 -45 -8 -134q0 -121 42 -356q37 -205 106 -582q38 80 183 377q146 297 146 449q0 82 -77 149l144 160q104 -72 104 -159q0 -117 -184 -494l-134 -273 q-116 -243 -146 -342l-154 -160q-11 132 -50 341q-26 141 -56 301q-30 161 -66 387l-262 -524q-118 -239 -151 -340l-169 -165q15 142 15 369q0 557 -51 733q-50 176 -124 176q-65 0 -118 -66q-53 -65 -65 -142q-41 0 -41 36z" />
<glyph unicode="X" horiz-adv-x="1436" d="M15 -7l148 144q45 -23 82 -23q89 0 193 106q104 107 254 378l23 41l-103 247q-68 166 -112 250q-44 85 -93 85q-51 0 -96 -61q-44 -60 -63 -131q-33 0 -33 47q0 88 88 199t168 111q59 0 105 -53q47 -53 104 -181l148 -341l105 179q224 396 458 396q68 0 144 -31 l-143 -146q-47 25 -71 25q-143 0 -311 -277q-101 -166 -141 -240l171 -394q95 -217 175 -217q105 0 155 176q37 -17 37 -43q0 -73 -88 -177t-184 -104q-70 0 -130 66q-59 67 -136 250l-114 275l-64 -118q-96 -180 -237 -327q-141 -146 -300 -146q-54 0 -139 35z" />
<glyph unicode="Y" horiz-adv-x="1321" d="M0 1386zM138 1168q0 64 74 141q75 77 150 77q142 0 262 -212q121 -211 156 -491q102 335 259 519q158 184 313 184q62 0 122 -39l-113 -155q-53 27 -94 27q-151 0 -307 -257t-174 -461q-13 -136 -36 -201q-17 -48 -56 -88q-38 -40 -148 -102l304 -14l-118 -117l-538 23 l138 125l118 -10q176 85 176 439q0 172 -55 347q-45 140 -115 247q-69 107 -142 107q-86 0 -143 -128q-33 0 -33 39zM816 1498z" />
<glyph unicode="Z" horiz-adv-x="1206" d="M0 1386zM69 -1q0 38 85 144l860 1038q-39 -9 -71 -9q-101 0 -234 52t-196 52q-73 0 -110 -61q-37 -60 -37 -169q0 -38 10 -72l-161 -100v34q0 202 134 340t313 138q71 0 176 -31t181 -31q131 0 195 62q23 -21 23 -39q0 -25 -25 -57q-25 -31 -49 -59l-879 -1067 q59 6 108 6q77 0 264 -33q188 -32 260 -32q176 0 229 129q36 -19 36 -29q0 -60 -83 -154q-82 -93 -204 -93q-55 0 -249 28q-193 28 -289 28q-132 0 -267 -56q-20 26 -20 41zM808 1498z" />
<glyph unicode="[" horiz-adv-x="647" d="M131 1808l235 -2118l122 -122h478l-120 116h-348l-222 2008h463l-120 116h-488z" />
<glyph unicode="\" horiz-adv-x="715" d="M32 1741l116 67l524 -2173l-116 -67z" />
<glyph unicode="]" horiz-adv-x="647" d="M-157 -432l120 116h348l222 2008h-463l120 116h488l-235 -2118l-122 -122h-478z" />
<glyph unicode="^" d="M152 311l528 957l85 82q35 -198 117 -473q83 -274 203 -483l-85 -83q-197 331 -311 840l-357 -665z" />
<glyph unicode="_" d="M43 -103l9 103h1031l-14 -103h-1026z" />
<glyph unicode="`" horiz-adv-x="913" d="M560 1375l80 81q87 -199 208 -276l-90 -92q-113 86 -198 287zM680 1088z" />
<glyph unicode="a" horiz-adv-x="1051" d="M106 205q0 291 193 519q194 228 478 228q113 0 180 -27q-23 -76 -36 -161l-72 -508q-10 -69 -10 -105q0 -45 25 -45q81 0 172 190q26 -21 26 -33q0 -44 -103 -166q-102 -121 -200 -121q-73 0 -73 94q0 33 8 84l33 238q-68 -119 -213 -268q-144 -148 -270 -148 q-138 0 -138 229zM269 261q0 -137 78 -137q106 0 246 173q141 173 173 381l18 124q-89 51 -191 51q-136 0 -230 -174q-94 -173 -94 -418zM691 1080zM789 0z" />
<glyph unicode="b" horiz-adv-x="993" d="M146 -11q20 60 30 157l100 876q39 344 242 549t425 205q53 0 95 -13l-146 -142q-54 16 -103 16q-145 0 -237 -105q-92 -104 -116 -325l-74 -671q71 136 216 276q146 140 253 140q147 0 147 -244q0 -304 -187 -518q-186 -214 -466 -214q-85 0 -179 13zM319 130 q87 -55 186 -55q147 0 228 168q82 168 82 403q0 160 -79 160q-97 0 -239 -164q-142 -163 -164 -369z" />
<glyph unicode="c" horiz-adv-x="784" d="M103 270q0 263 176 472q177 210 386 210q85 0 133 -27l-115 -133q-85 30 -147 30q-123 0 -203 -105q-79 -104 -79 -302q0 -147 56 -225q56 -77 138 -77q77 0 133 54t97 145q22 -25 22 -43q0 -84 -122 -189q-122 -104 -237 -104q-117 0 -178 89q-60 89 -60 205zM350 0z M624 1080z" />
<glyph unicode="d" horiz-adv-x="1051" d="M101 212q0 260 189 500t444 240q18 0 42 -2l10 83q43 330 225 536q182 207 420 207q57 0 97 -11l-142 -143q-50 15 -109 15q-145 0 -222 -101t-103 -348l-96 -862q-16 -149 -16 -169q0 -51 27 -51q75 0 165 190q29 -23 29 -33q0 -54 -105 -171q-104 -116 -182 -116 t-78 102q0 53 27 314q-75 -156 -232 -286t-244 -130q-146 0 -146 236zM264 261q0 -137 80 -137q99 0 236 153q137 154 169 389l15 140q-80 47 -156 47q-152 0 -248 -173q-96 -172 -96 -419z" />
<glyph unicode="e" horiz-adv-x="762" d="M103 262q0 247 176 468q176 222 343 222q123 0 123 -131q0 -139 -143 -283q-142 -143 -353 -195q23 -237 193 -237q81 0 159 60t122 162q22 -27 22 -41q0 -58 -136 -185q-136 -126 -268 -126q-102 0 -170 78q-68 79 -68 208zM254 465q32 -11 55 -11q110 0 212 70 q102 71 102 180q0 118 -118 118q-86 0 -160 -104q-73 -103 -91 -253zM452 0zM582 1080z" />
<glyph unicode="f" horiz-adv-x="639" d="M-464 -805l132 121q78 -29 152 -29q128 0 222 102q94 103 118 344l109 1078h-173l113 117h70l9 68q41 368 209 574t449 206q81 0 126 -10l-137 -138q-77 29 -139 29q-157 0 -235 -103t-113 -456l-17 -157v-13h401l-120 -117h-291l-85 -791q-48 -470 -244 -661t-434 -191 q-61 0 -122 27z" />
<glyph unicode="g" horiz-adv-x="954" d="M-162 -526q0 146 98 285t228 242q-70 59 -70 195q0 291 193 519q194 228 469 228q110 0 173 -28q-27 -84 -33 -151l-33 -294q-12 -191 -42 -572q-30 -357 -248 -544q-217 -186 -432 -186q-128 0 -216 84q-87 85 -87 222zM-30 -432q0 -129 89 -209q90 -80 211 -80 q164 0 271 126q108 126 139 547l32 445q-105 -179 -240 -298q-134 -118 -238 -118q-16 0 -34 2q-105 -101 -168 -206q-62 -104 -62 -209zM257 256q0 -136 78 -136q100 0 243 176q143 177 166 384l12 110q-65 54 -175 54q-137 0 -231 -172q-93 -171 -93 -416zM665 1071z" />
<glyph unicode="h" horiz-adv-x="1090" d="M161 -24l118 1055q33 320 229 532q196 213 435 213q62 0 95 -13l-144 -141q-68 15 -107 15q-143 0 -234 -108q-90 -108 -114 -324l-75 -653q81 135 234 267q153 133 265 133q98 0 98 -133q0 -32 -7 -73l-57 -405q-18 -125 -18 -187q0 -56 27 -56q76 0 173 182 q24 -19 24 -31q0 -66 -111 -170q-110 -103 -181 -103q-80 0 -80 108q0 76 10 147l54 383q8 66 8 120q0 83 -53 83q-124 0 -260 -177q-135 -177 -157 -368l-26 -234z" />
<glyph unicode="i" horiz-adv-x="606" d="M112 682q0 62 108 166q109 104 192 104q73 0 73 -102q0 -22 -7 -64l-73 -513q-14 -99 -14 -126q0 -41 31 -41q80 0 178 190q24 -21 24 -33q0 -46 -109 -167q-108 -120 -200 -120q-75 0 -75 96q0 21 8 78l75 513q11 67 11 103q0 56 -29 56q-77 0 -174 -174q-19 22 -19 34z M391 1080l84 208q113 42 187 124q10 -17 10 -29q0 -131 -281 -303zM399 0z" />
<glyph unicode="j" horiz-adv-x="545" d="M-449 -805q79 71 113 90t73 19q26 0 66 -14q40 -13 84 -13q154 0 223 126q69 127 113 550l80 856q-79 -71 -207 -176l7 80q177 111 360 288l-96 -1010q-44 -431 -223 -627q-178 -196 -430 -196q-97 0 -163 27zM394 1081l46 188q123 60 191 144q8 -16 8 -32 q0 -49 -95 -162q-95 -112 -150 -138z" />
<glyph unicode="k" horiz-adv-x="946" d="M161 -24l120 1055q36 334 240 539q204 206 425 206q47 0 95 -12l-146 -143q-60 16 -103 16q-130 0 -227 -98q-96 -97 -123 -336l-64 -575q42 97 160 210q118 114 229 114q130 0 130 -133q0 -142 -124 -243t-260 -131q57 -111 142 -225q85 -113 143 -113q55 0 141 112 q22 -21 22 -30q0 -41 -91 -127q-90 -86 -151 -86q-66 0 -170 145q-103 146 -195 316l-44 -399zM360 472q187 3 280 81q94 79 94 171q0 106 -75 106q-80 0 -171 -123q-90 -122 -128 -235zM508 0z" />
<glyph unicode="l" horiz-adv-x="547" d="M170 96q0 64 10 156l86 756q37 345 221 556q184 212 420 212q43 0 95 -11l-144 -143q-63 15 -100 15q-131 0 -216 -87q-85 -86 -116 -355l-95 -867q-10 -90 -10 -132q0 -89 31 -89q39 0 89 67q51 68 65 122q31 -23 31 -39q0 -65 -106 -173t-176 -108q-85 0 -85 120z M287 0zM840 1888z" />
<glyph unicode="m" horiz-adv-x="1616" d="M96 682q0 62 108 166t173 104q86 0 86 -109q0 -31 -5 -60l-24 -231q113 184 228 292t218 108q93 0 93 -131q0 -22 -4 -50l-28 -267q74 162 203 305q130 143 249 143q99 0 99 -123q0 -51 -7 -95l-57 -393q-18 -126 -18 -186q0 -57 27 -57q76 0 173 182q22 -13 22 -31 q0 -66 -110 -170q-110 -103 -181 -103q-82 0 -82 115q0 57 12 143l54 382q9 66 9 119q0 82 -56 82q-101 0 -225 -193q-123 -193 -141 -352l-26 -234l-146 -62l66 588q13 110 13 154q0 99 -60 99q-88 0 -211 -176q-122 -176 -144 -369l-27 -234l-149 -62l75 688q7 55 7 89 q0 69 -29 69q-70 0 -163 -174q-22 26 -22 34z" />
<glyph unicode="n" horiz-adv-x="1155" d="M96 682q0 58 109 164q110 106 172 106q86 0 86 -109q0 -31 -4 -60l-26 -231q101 153 246 276q146 124 254 124q95 0 95 -133q0 -39 -5 -73l-59 -405q-18 -125 -18 -187q0 -56 27 -56q76 0 173 182q24 -19 24 -31q0 -66 -112 -170q-111 -103 -183 -103q-77 0 -77 108 q0 76 10 147l53 383q9 66 9 120q0 83 -53 83q-124 0 -257 -168q-133 -167 -158 -377l-28 -234l-146 -62l75 688q7 55 7 89q0 69 -29 69q-70 0 -163 -174q-22 26 -22 34zM615 0zM709 1080z" />
<glyph unicode="o" horiz-adv-x="879" d="M103 270q0 250 178 466t369 216q231 0 231 -290q0 -252 -180 -469q-179 -217 -367 -217q-231 0 -231 294zM257 402q0 -313 193 -313q112 0 194 120q83 120 83 319q0 311 -193 311q-113 0 -195 -117t-82 -320zM632 1080z" />
<glyph unicode="p" horiz-adv-x="1020" d="M-432 -818l144 143q51 -18 107 -18q142 0 231 112q90 112 110 316l112 1074q-89 -77 -224 -176l7 80q179 109 377 288l-47 -465q71 141 208 278q138 138 259 138q140 0 140 -245q0 -285 -187 -496t-431 -211h-46l-8 -78q-36 -336 -235 -545q-198 -209 -420 -209 q-53 0 -97 14zM342 149q89 -50 181 -50q142 0 224 158t82 394q0 155 -80 155q-104 0 -237 -170q-132 -169 -156 -372z" />
<glyph unicode="q" horiz-adv-x="993" d="M108 197q0 294 196 524q196 231 473 231q79 0 166 -25q-25 -80 -35 -172l-154 -1395q173 149 227 176l-10 -82q-163 -94 -381 -286l138 1224q-94 -150 -243 -283t-244 -133q-133 0 -133 221zM271 261q0 -137 73 -137q72 0 193 116q122 117 158 197q49 99 66 252l12 121 q-76 43 -167 43q-131 0 -233 -166q-102 -165 -102 -426z" />
<glyph unicode="r" horiz-adv-x="854" d="M95 686q0 65 110 165q110 101 172 101q86 0 86 -109q0 -30 -4 -59l-26 -248q114 225 226 320q113 96 211 96q53 0 112 -27l-139 -153q-43 18 -78 18q-118 0 -230 -173q-112 -172 -133 -352l-26 -238l-146 -51l72 685q7 51 7 88q0 73 -29 73q-70 0 -163 -171 q-22 26 -22 35zM336 0zM627 1080z" />
<glyph unicode="s" horiz-adv-x="727" d="M43 29l134 107q87 -76 199 -76q143 0 143 136q0 52 -54 121q-53 69 -126 145q-76 80 -105 126q-28 46 -28 92q0 117 102 194q102 78 245 78q85 0 175 -29l-120 -115q-74 60 -164 60q-113 0 -113 -91q0 -35 46 -98q47 -62 112 -134q97 -100 129 -158q33 -58 33 -95 q0 -128 -124 -222q-123 -94 -275 -94q-106 0 -209 53zM302 0zM536 1080z" />
<glyph unicode="t" horiz-adv-x="725" d="M65 811l118 117h108l21 175l139 49l-25 -224h425l-115 -117h-320l-43 -396q-16 -156 -16 -218q0 -110 80 -110t174 129q14 -17 14 -29q0 -52 -101 -132q-100 -79 -172 -79q-141 0 -141 182q0 66 6 122l60 531h-212zM374 0z" />
<glyph unicode="u" horiz-adv-x="1149" d="M0 952zM88 679q0 67 110 170t178 103q82 0 82 -115q0 -23 -13 -145l-39 -379q-10 -99 -10 -124q0 -76 49 -76q164 0 350 318q64 113 83 249l33 222l163 55q-29 -101 -41 -184l-62 -410q-22 -148 -22 -214q0 -43 27 -43q77 0 175 190q24 -29 24 -35q0 -47 -110 -166 q-109 -119 -193 -119q-76 0 -76 99q0 43 8 97l33 220q-87 -135 -238 -276q-151 -140 -255 -140q-102 0 -102 131q0 27 6 83l35 330q21 193 21 237q0 58 -33 58q-78 0 -161 -167q-22 16 -22 31zM716 1080zM931 0z" />
<glyph unicode="v" horiz-adv-x="924" d="M24 708q0 83 67 163q68 81 121 81q103 0 177 -141t118 -352l53 -258q277 384 277 532q0 61 -58 94l126 127q74 -51 74 -115q0 -83 -104 -245q-103 -161 -296 -481l-139 -137q-37 331 -127 585t-151 254q-79 0 -109 -144q-29 15 -29 37z" />
<glyph unicode="w" horiz-adv-x="1284" d="M26 709q0 75 74 159t132 84q81 0 130 -131q50 -131 75 -349l25 -218q58 100 148 290q90 191 120 294l120 114q21 -228 106 -736q126 205 189 335q64 130 64 190q0 55 -60 98l123 115q74 -51 74 -111q0 -77 -108 -257q-108 -179 -147 -247q-83 -155 -113 -245l-120 -118 q-20 268 -109 702q-163 -283 -265 -561l-154 -141q-4 297 -51 566q-47 270 -115 270q-74 0 -107 -144q-31 14 -31 41z" />
<glyph unicode="x" horiz-adv-x="1026" d="M7 9l118 111q38 -25 64 -25q76 0 166 98t162 244q-89 237 -133 316q-43 79 -77 79q-75 0 -113 -136q-29 14 -29 35q0 59 70 140q71 81 131 81q58 0 112 -70q55 -69 136 -304q105 175 197 274q92 100 179 100q43 0 89 -23l-120 -121q-17 4 -34 4q-66 0 -142 -87t-146 -215 q44 -131 115 -275q72 -144 125 -144q32 0 61 24q29 25 54 85q29 -14 29 -38q0 -47 -76 -117q-76 -69 -140 -69q-78 0 -152 134q-73 134 -111 266q-109 -208 -217 -304t-198 -96q-68 0 -120 33z" />
<glyph unicode="y" horiz-adv-x="1110" d="M-62 -801l122 139q106 -48 196 -48q178 0 291 112q114 113 190 495l97 495q-72 -127 -189 -272q-117 -144 -200 -144q-97 0 -107 211l-22 428q-6 124 -14 172t-43 48q-80 0 -153 -144q-24 12 -24 39q0 52 91 137q92 85 166 85q53 0 80 -50q28 -49 37 -187l19 -372 q9 -199 62 -199q76 0 196 176q121 177 153 344l45 228l175 62q-39 -110 -54 -188l-145 -719q-90 -454 -311 -667q-220 -212 -503 -212q-87 0 -155 31zM0 952zM698 1080z" />
<glyph unicode="z" horiz-adv-x="844" d="M0 952zM48 -20l82 158q154 185 273 328q120 144 260 330q-18 -2 -29 -2q-67 0 -177 30q-109 31 -131 31q-69 0 -69 -80q0 -22 16 -59l-118 -100q-4 26 -4 45q0 120 78 205q79 86 181 86q24 0 146 -19t155 -19q84 0 153 34l-86 -160q-62 -66 -222 -264 q-160 -197 -321 -402q51 9 93 9q64 0 178 -16q115 -16 172 -16q83 0 131 48q19 -8 19 -27q0 -52 -58 -96t-122 -44q-33 0 -162 10t-190 10q-146 0 -248 -20zM563 1080z" />
<glyph unicode="{" horiz-adv-x="713" d="M96 680l102 102l124 1q174 73 174 231q0 47 -8 116t-8 120q0 433 368 558l10 -31q-234 -114 -234 -381q0 -62 8 -134t8 -127q0 -181 -87 -256t-167 -107q190 -29 190 -222q0 -103 -48 -372q-48 -268 -48 -340q0 -128 128 -182l-86 -88q-186 56 -186 248q0 89 48 359 t48 336q0 90 -54 129q-53 40 -196 40h-86z" />
<glyph unicode="|" horiz-adv-x="418" d="M128 -112l156 1413l147 155l-156 -1413z" />
<glyph unicode="}" horiz-adv-x="713" d="M4 -399q236 111 236 384q0 39 -8 127t-8 136q0 164 79 248t175 119q-190 28 -190 220q0 101 48 368q48 268 48 337q0 127 -128 180l88 88q184 -56 184 -245q0 -89 -48 -357t-48 -332q0 -90 53 -129q54 -38 197 -38h86l-102 -102l-125 -2q-173 -74 -173 -233q0 -52 8 -129 t8 -109q0 -437 -368 -564z" />
<glyph unicode="~" d="M156 390q0 102 76 200q77 99 167 99q83 0 244 -128q162 -128 240 -128q150 0 175 224q42 -23 42 -64q0 -90 -75 -187q-75 -96 -168 -96q-87 0 -246 128t-238 128q-149 0 -175 -224q-42 20 -42 48z" />
<glyph unicode="&#xa1;" horiz-adv-x="524" d="M198 -321q0 150 19 359q19 208 35 392l128 98q-29 -320 -29 -533q0 -256 37 -427l-182 -71q-8 119 -8 182zM227 819l145 141q48 -94 119 -141l-150 -144q-75 60 -114 144z" />
<glyph unicode="&#xa2;" horiz-adv-x="1061" d="M213 268q0 205 130 392q131 188 271 265l34 320l74 73l-41 -358q133 38 185 38q82 0 120 -25l-130 -136q-93 32 -138 32q-23 0 -47 -5l-79 -709q68 23 121 72q54 50 85 113q18 -21 18 -39q0 -46 -80 -126q-79 -79 -153 -121l-26 -213l-72 -70l31 259q-66 -19 -102 -19 q-201 0 -201 257zM378 395q0 -219 150 -248l77 705q-77 -25 -152 -154t-75 -303z" />
<glyph unicode="&#xa3;" horiz-adv-x="938" d="M5 1l106 122q70 -6 118 -10q33 26 64 81q64 110 64 321h-244l60 65h184q17 189 149 321q133 133 336 133q82 0 123 -18l-127 -120q-59 32 -154 32q-109 0 -154 -66t-45 -212v-70h288l-58 -65h-230v-26q0 -120 -34 -195q-20 -43 -72 -101q-35 -29 -86 -82q133 -6 252 -6 q228 0 338 128q12 -10 12 -32q0 -55 -116 -141q-115 -86 -249 -86q-130 0 -274 6q-143 6 -251 21z" />
<glyph unicode="&#xa4;" horiz-adv-x="1307" d="M16 -30l354 283q-50 79 -50 171q0 156 87 263l-260 246l88 69l255 -219q116 110 278 110q134 0 246 -101l175 143l231 67l-365 -275q44 -83 44 -166q0 -141 -88 -261l264 -244l-92 -86l-253 230q-118 -109 -281 -109q-125 0 -237 106l-189 -158zM427 514q0 -131 90 -220 t208 -89q112 0 189 80q78 81 78 196q0 121 -88 209q-87 89 -208 89q-117 0 -193 -76t-76 -189z" />
<glyph unicode="&#xa5;" horiz-adv-x="1133" d="M130 0l113 116l127 -10q131 70 152 213h-320l50 54h274q4 25 4 50q0 35 -4 62h-302l55 54h235q-30 127 -90 237q-59 111 -128 111q-83 0 -107 -112q-37 0 -37 33q0 57 72 128q72 72 136 72q93 0 184 -146t104 -323q110 245 220 357q111 112 222 112q49 0 128 -35 l-118 -118q-43 16 -75 16q-94 0 -181 -107t-138 -225h288l-55 -54h-251q-16 -43 -27 -112h311l-55 -54h-266q-15 -61 -70 -120q-54 -58 -131 -96l288 -16l-110 -113z" />
<glyph unicode="&#xa6;" horiz-adv-x="418" d="M128 -112l74 656l145 160l-72 -661zM216 704l68 597l147 155l-66 -598z" />
<glyph unicode="&#xa7;" d="M87 -210l160 90q19 -242 306 -242q124 0 199 69t75 168q0 133 -169 250l-109 77q-268 184 -268 355q0 161 150 294q-109 84 -109 204q0 147 127 240q128 94 340 94q171 0 294 -65l-63 -150q-31 -73 -59 -73q-10 0 -22 6q16 50 16 77q0 70 -73 108q-73 39 -177 39 q-113 0 -190 -55q-77 -54 -77 -149q0 -62 54 -120q55 -58 176 -144l120 -80q123 -86 178 -162q55 -75 55 -182q0 -166 -131 -296q65 -77 65 -177q0 -162 -143 -276q-142 -114 -349 -114q-285 0 -376 214zM397 638q0 -76 50 -145q51 -69 207 -177l201 -138q59 75 59 184 q0 84 -50 148q-49 64 -175 154l-217 151q-75 -62 -75 -177z" />
<glyph unicode="&#xa8;" horiz-adv-x="913" d="M384 1201l120 112q61 -42 88 -113l-112 -112q-40 75 -96 113zM638 1088zM704 1201l120 112q63 -42 88 -113l-112 -112q-38 75 -96 113z" />
<glyph unicode="&#xa9;" horiz-adv-x="1573" d="M144 679q0 298 207 505q208 208 507 208q292 0 502 -207q211 -206 211 -507q0 -298 -208 -506q-208 -207 -506 -207t-506 207q-207 208 -207 507zM211 678q0 -268 189 -457q190 -189 458 -189q270 0 458 189q188 190 188 458q0 267 -190 456q-190 190 -457 190 q-268 0 -457 -190t-189 -457zM480 574q0 209 152 370q152 162 348 162q134 0 235 -41l-58 -137q-19 -46 -45 -46q-13 0 -25 4q9 12 9 35q0 121 -155 121q-133 0 -226 -118q-92 -118 -92 -287q0 -140 65 -218q66 -77 175 -77q58 0 127 23t128 73q9 -22 9 -43q0 -24 -44 -59 q-44 -34 -121 -62q-94 -36 -181 -36q-127 0 -214 95t-87 241z" />
<glyph unicode="&#xaa;" horiz-adv-x="709" d="M216 911q0 184 124 316q125 133 314 133q65 0 114 -21q-15 -44 -23 -98l-37 -235q-14 -98 -14 -130q0 -11 10 -11q42 0 95 112q31 -25 31 -34q0 -33 -70 -105q-69 -71 -124 -71q-53 0 -53 67q0 22 17 141q-44 -70 -123 -139q-78 -69 -150 -69q-111 0 -111 144zM336 947 q0 -77 47 -77q69 0 149 99t94 198l12 86q-46 27 -106 27q-95 0 -146 -98q-50 -98 -50 -235z" />
<glyph unicode="&#xab;" horiz-adv-x="1165" d="M72 528l95 -93l543 -384l-62 147l-436 257q117 62 195 132q77 70 177 200l-95 93q-151 -244 -417 -352zM520 528l91 -93l547 -384l-62 147l-436 257q118 62 196 132t176 200l-91 93q-154 -244 -421 -352z" />
<glyph unicode="&#xac;" d="M100 463l117 123h875l-40 -360l-133 -131l42 368h-861z" />
<glyph unicode="&#xad;" horiz-adv-x="741" d="M128 420l124 129h468l-128 -129h-464z" />
<glyph unicode="&#xae;" horiz-adv-x="1573" d="M144 679q0 298 207 505q208 208 507 208q292 0 502 -207q211 -206 211 -507q0 -298 -208 -506q-208 -207 -506 -207t-506 207q-207 208 -207 507zM211 678q0 -268 189 -457q190 -189 458 -189q270 0 458 189q188 190 188 458q0 267 -190 456q-190 190 -457 190 q-268 0 -457 -190t-189 -457zM448 252l78 79h66q24 30 40 175l56 528h-107l67 79h282q270 0 270 -186q0 -159 -208 -246q41 -106 111 -225q77 -130 139 -130q19 0 42 14q6 -10 6 -22q0 -21 -75 -50q-46 -16 -69 -16q-61 0 -127 95q-65 95 -146 286q-15 -3 -37 -3 q-38 0 -65 7l-16 -158q-7 -71 -29 -104t-70 -44h160l-79 -79h-289zM777 697q42 -10 98 -10q19 0 44 4q30 10 84 68t54 143q0 133 -153 133h-88z" />
<glyph unicode="&#xaf;" horiz-adv-x="913" d="M336 1088l106 106h470l-102 -106h-474zM581 1088z" />
<glyph unicode="&#xb0;" horiz-adv-x="549" d="M182 1176q0 110 102 211q102 102 217 102q143 0 143 -146q0 -115 -114 -212q-113 -97 -204 -97q-144 0 -144 142zM276 1269q0 -148 143 -148q54 0 92 43q39 43 39 100q0 53 -39 95q-38 43 -92 43q-62 0 -103 -40q-40 -39 -40 -93z" />
<glyph unicode="&#xb1;" d="M46 -14l121 123h948l-121 -123h-948zM104 541l121 123h363l29 233l128 119l-41 -352h473l-123 -123h-364l-25 -231l-129 -121l40 352h-472z" />
<glyph unicode="&#xb2;" horiz-adv-x="750" d="M133 784l96 103q143 82 262 221q120 139 120 247q0 163 -148 163q-93 0 -155 -64q-21 24 -21 37q0 36 68 66q68 31 164 31q222 0 222 -182q0 -123 -139 -274q-138 -151 -277 -249l418 -10l-98 -101z" />
<glyph unicode="&#xb3;" horiz-adv-x="750" d="M178 789l88 87q83 -32 163 -32q169 0 169 158q0 84 -57 125q-56 41 -172 41q-48 0 -79 -10l90 84l54 2q169 66 169 168q0 106 -119 106q-83 0 -145 -64q-14 22 -14 35q0 31 73 65t143 34q181 0 181 -138q0 -132 -192 -218q171 -27 171 -181q0 -116 -117 -202 q-116 -85 -241 -85q-81 0 -165 25z" />
<glyph unicode="&#xb4;" horiz-adv-x="913" d="M525 1088l115 208q182 76 253 160q19 -38 19 -56q0 -99 -387 -312zM642 1088z" />
<glyph unicode="&#xb5;" horiz-adv-x="1059" d="M96 -432l149 1329l160 55q-13 -58 -47 -337q-33 -278 -33 -327q0 -177 122 -177q108 0 214 167t129 386l25 233l161 55q-21 -78 -60 -403q-38 -325 -38 -390q0 -53 31 -53q79 0 167 176q22 -22 22 -35q0 -59 -115 -165q-114 -106 -173 -106q-79 0 -79 102q0 66 29 282 q-69 -153 -160 -269q-91 -115 -205 -115q-56 0 -105 38l-45 -384z" />
<glyph unicode="&#xb6;" d="M185 794q0 225 400 347l21 204l102 95l-31 -285q101 16 184 20l18 168l102 97l-31 -263q155 -13 239 -39l-112 -109q-33 18 -63 25t-74 12l-53 -471q137 12 229 88q6 -18 6 -32q0 -36 -80 -82q-79 -45 -166 -63l-94 -836l-100 -102l101 919q-44 -2 -89 -2q-36 0 -91 3 l-92 -822l-102 -98l105 938q-329 94 -329 288zM616 608q67 -21 146 -21q16 0 33 2l56 484q-41 4 -76 4q-44 0 -108 -7z" />
<glyph unicode="&#xb7;" d="M496 504l150 141q26 -17 63 -64t52 -78l-146 -141q-48 94 -119 142z" />
<glyph unicode="&#xb8;" horiz-adv-x="913" d="M202 -408q182 18 182 118q0 92 -128 117l96 173h80l-64 -96q128 -42 128 -155q0 -76 -76 -143t-164 -67q-44 0 -54 53zM401 0z" />
<glyph unicode="&#xb9;" horiz-adv-x="750" d="M245 784l88 66h93q15 41 21 92l56 528q-27 -21 -168 -105l8 82q71 23 272 158l-73 -667q-6 -59 -30 -88h181l-86 -66h-362z" />
<glyph unicode="&#xba;" horiz-adv-x="604" d="M224 945q0 160 110 287q110 128 251 128q152 0 152 -178q0 -164 -113 -290q-112 -125 -238 -125q-162 0 -162 178zM337 1028q0 -181 119 -181q68 0 118 69t50 185q0 179 -117 179q-75 0 -123 -77q-47 -76 -47 -175z" />
<glyph unicode="&#xbb;" horiz-adv-x="1165" d="M99 51l62 147l436 257q-118 62 -196 132t-176 200l91 93q154 -244 421 -352l-91 -93zM547 51l62 147l436 257q-117 62 -195 132q-77 70 -177 200l95 93q151 -244 417 -352l-95 -93z" />
<glyph unicode="&#xbc;" horiz-adv-x="1552" d="M187 -67l1197 1414l163 64l-1192 -1413zM204 567l88 66h93q15 41 21 92l56 528q-27 -21 -168 -105l8 82q71 23 272 158l-73 -667q-6 -59 -30 -88h181l-86 -66h-362zM746 246l608 613l-58 -539h154l-67 -74h-95l-27 -226l-96 -47l31 273h-450zM913 320h291l38 323z" />
<glyph unicode="&#xbd;" horiz-adv-x="1552" d="M136 -67l1197 1414l163 64l-1192 -1413zM177 567l88 66h93q15 41 21 92l56 528q-27 -21 -168 -105l8 82q71 23 272 158l-73 -667q-6 -59 -30 -88h181l-86 -66h-362zM852 -9l96 103q143 82 262 221q120 139 120 247q0 163 -148 163q-93 0 -155 -64q-21 24 -21 37 q0 36 68 66q68 31 164 31q222 0 222 -182q0 -123 -139 -274q-138 -151 -277 -249l418 -10l-98 -101z" />
<glyph unicode="&#xbe;" horiz-adv-x="1552" d="M125 568l88 87q83 -32 163 -32q169 0 169 158q0 84 -57 125q-56 41 -172 41q-48 0 -79 -10l90 84l54 2q169 66 169 168q0 106 -119 106q-83 0 -145 -64q-14 22 -14 35q0 31 73 65t143 34q181 0 181 -138q0 -132 -192 -218q171 -27 171 -181q0 -116 -117 -202 q-116 -85 -241 -85q-81 0 -165 25zM165 -67l1197 1414l163 64l-1192 -1413zM797 246l608 613l-58 -539h154l-67 -74h-95l-27 -226l-96 -47l31 273h-450zM964 320h291l38 323z" />
<glyph unicode="&#xbf;" horiz-adv-x="745" d="M8 -282q0 130 113 218q112 88 206 157q127 116 127 240q0 42 -8 64l165 150q16 -36 16 -84q0 -115 -56 -196q-56 -82 -168 -175q-103 -83 -152 -162t-49 -152q0 -205 214 -205q92 0 211 64q8 -14 8 -22q0 -40 -113 -79q-114 -39 -225 -39q-289 0 -289 221zM437 819 l145 141q48 -94 119 -141l-150 -144q-26 19 -62 67q-37 47 -52 77z" />
<glyph unicode="&#xc0;" horiz-adv-x="1468" d="M0 1386zM120 832q0 226 189 376t676 150q138 0 332 -12q-77 -121 -77 -442q0 -400 59 -654q16 -73 35 -97q20 -24 64 -24q56 0 120 33q6 -9 6 -27q0 -27 -32 -42q-64 -32 -173 -79q-109 -46 -127 -56q-72 224 -100 532l-76 -56h-339q-64 -155 -130 -225 q-65 -69 -120 -107l208 -11l-110 -112l-402 13l133 120l91 -6q82 66 134 178q53 112 130 315l71 176q61 168 146 280t223 179q-146 30 -324 30q-459 0 -459 -303q0 -97 49 -187l-155 -152q-42 109 -42 210zM722 544h368q-14 226 -14 301q0 240 31 368q-178 -97 -297 -424 q-37 -104 -88 -245zM999 1785l80 81q87 -199 208 -276l-90 -92q-113 86 -198 287zM1119 1498zM1119 1498zM1239 0z" />
<glyph unicode="&#xc1;" horiz-adv-x="1470" d="M0 1386zM120 832q0 226 189 376t676 150q138 0 332 -12q-77 -121 -77 -442q0 -400 59 -654q16 -73 35 -97q20 -24 64 -24q56 0 120 33q6 -9 6 -27q0 -27 -32 -42q-64 -32 -173 -79q-109 -46 -127 -56q-72 224 -100 532l-76 -56h-339q-64 -155 -130 -225 q-65 -69 -120 -107l208 -11l-110 -112l-402 13l133 120l91 -6q82 66 134 178q53 112 130 315l71 176q61 168 146 280t223 179q-146 30 -324 30q-459 0 -459 -303q0 -97 49 -187l-155 -152q-42 109 -42 210zM722 544h368q-14 226 -14 301q0 240 31 368q-178 -97 -297 -424 q-37 -104 -88 -245zM1002 1498l115 208q182 76 253 160q19 -38 19 -56q0 -99 -387 -312zM1119 1498zM1119 1498zM1239 0z" />
<glyph unicode="&#xc2;" horiz-adv-x="1468" d="M0 1386zM120 832q0 226 189 376t676 150q138 0 332 -12q-77 -121 -77 -442q0 -400 59 -654q16 -73 35 -97q20 -24 64 -24q56 0 120 33q6 -9 6 -27q0 -27 -32 -42q-64 -32 -173 -79q-109 -46 -127 -56q-72 224 -100 532l-76 -56h-339q-64 -155 -130 -225 q-65 -69 -120 -107l208 -11l-110 -112l-402 13l133 120l91 -6q82 66 134 178q53 112 130 315l71 176q61 168 146 280t223 179q-146 30 -324 30q-459 0 -459 -303q0 -97 49 -187l-155 -152q-42 109 -42 210zM722 544h368q-14 226 -14 301q0 240 31 368q-178 -97 -297 -424 q-37 -104 -88 -245zM924 1498l51 120q36 16 88 69t72 92l80 87q42 -178 160 -280l-83 -88q-88 77 -141 227q-123 -173 -227 -227zM1119 1498zM1119 1498zM1239 0z" />
<glyph unicode="&#xc3;" horiz-adv-x="1468" d="M0 1386zM120 832q0 226 189 376t676 150q138 0 332 -12q-77 -121 -77 -442q0 -400 59 -654q16 -73 35 -97q20 -24 64 -24q56 0 120 33q6 -9 6 -27q0 -27 -32 -42q-64 -32 -173 -79q-109 -46 -127 -56q-72 224 -100 532l-76 -56h-339q-64 -155 -130 -225 q-65 -69 -120 -107l208 -11l-110 -112l-402 13l133 120l91 -6q82 66 134 178q53 112 130 315l71 176q61 168 146 280t223 179q-146 30 -324 30q-459 0 -459 -303q0 -97 49 -187l-155 -152q-42 109 -42 210zM722 544h368q-14 226 -14 301q0 240 31 368q-178 -97 -297 -424 q-37 -104 -88 -245zM871 1522q0 55 55 128t106 73q38 0 112 -57q75 -56 108 -56q32 0 57 29t48 88q26 -10 26 -32q0 -55 -55 -128t-104 -73q-45 0 -120 56q-74 57 -110 57q-61 0 -97 -117q-26 21 -26 32zM1119 1498zM1119 1498zM1239 0z" />
<glyph unicode="&#xc4;" horiz-adv-x="1468" d="M0 1386zM120 832q0 226 189 376t676 150q138 0 332 -12q-77 -121 -77 -442q0 -400 59 -654q16 -73 35 -97q20 -24 64 -24q56 0 120 33q6 -9 6 -27q0 -27 -32 -42q-64 -32 -173 -79q-109 -46 -127 -56q-72 224 -100 532l-76 -56h-339q-64 -155 -130 -225 q-65 -69 -120 -107l208 -11l-110 -112l-402 13l133 120l91 -6q82 66 134 178q53 112 130 315l71 176q61 168 146 280t223 179q-146 30 -324 30q-459 0 -459 -303q0 -97 49 -187l-155 -152q-42 109 -42 210zM722 544h368q-14 226 -14 301q0 240 31 368q-178 -97 -297 -424 q-37 -104 -88 -245zM865 1611l120 112q61 -42 88 -113l-112 -112q-40 75 -96 113zM1119 1498zM1119 1498zM1185 1611l120 112q63 -42 88 -113l-112 -112q-38 75 -96 113zM1239 0z" />
<glyph unicode="&#xc5;" horiz-adv-x="1468" d="M0 1386zM120 832q0 226 189 376t676 150q138 0 332 -12q-77 -121 -77 -442q0 -400 59 -654q16 -73 35 -97q20 -24 64 -24q56 0 120 33q6 -9 6 -27q0 -27 -32 -42q-64 -32 -173 -79q-109 -46 -127 -56q-72 224 -100 532l-76 -56h-339q-64 -155 -130 -225 q-65 -69 -120 -107l208 -11l-110 -112l-402 13l133 120l91 -6q82 66 134 178q53 112 130 315l71 176q61 168 146 280t223 179q-146 30 -324 30q-459 0 -459 -303q0 -97 49 -187l-155 -152q-42 109 -42 210zM722 544h368q-14 226 -14 301q0 240 31 368q-178 -97 -297 -424 q-37 -104 -88 -245zM948 1615q0 88 87 174q88 87 183 87q120 0 120 -121q0 -90 -91 -174q-91 -83 -179 -83q-120 0 -120 117zM1034 1685q0 -113 114 -113q107 0 107 114q0 113 -110 113q-111 0 -111 -114zM1119 1498zM1119 1498zM1239 0z" />
<glyph unicode="&#xc6;" horiz-adv-x="1968" d="M55 -8l139 123l98 -6q82 51 125 105t96 172l84 181h-94l142 116q90 230 185 353q95 124 238 198h-283q-426 0 -426 -291q0 -88 42 -168l-160 -151q-20 50 -20 143q0 272 193 424q194 153 520 153h722q137 0 360 12l-75 -186q-45 -112 -83 -112q-13 0 -18 4q13 36 13 72 q0 62 -61 81t-200 19h-101h-141l-62 -550h216q215 0 314 21q-69 -75 -123 -107q-53 -31 -138 -31h-127h-155l-49 -436q188 -27 319 -27q214 0 373 144q15 -19 15 -39q0 -25 -50 -77q-50 -51 -105 -83q-119 -70 -262 -70q-112 0 -269 10q-156 11 -199 11l64 567h-391 q-58 -129 -110 -215t-141 -171q-38 -36 -99 -77l191 -14l-109 -111zM764 684h361l60 540q-89 -19 -182 -111t-151 -229q-34 -84 -88 -200z" />
<glyph unicode="&#xc7;" horiz-adv-x="1276" d="M146 538q0 361 237 604q237 244 578 244q201 0 364 -65l-64 -140q-16 -32 -34 -66q-17 -33 -45 -33h-23q15 22 15 54q0 62 -88 113q-87 51 -204 51q-256 0 -403 -199q-146 -199 -146 -493q0 -255 112 -392q113 -137 283 -137q130 0 249 73q120 73 175 152l27 38 q18 0 18 -30q0 -92 -184 -223q-183 -131 -403 -131q-211 0 -338 149q-126 150 -126 431zM435 -408q182 18 182 118q0 92 -128 117l96 173h80l-64 -96q128 -42 128 -155q0 -76 -76 -143t-164 -67q-44 0 -54 53zM634 0zM634 0zM952 1498z" />
<glyph unicode="&#xc8;" horiz-adv-x="1497" d="M0 1386zM26 29l182 139q59 -15 230 -33q94 32 135 98q42 66 58 198l90 803h-52q-192 0 -299 -83q-107 -82 -107 -201q0 -116 46 -186l-162 -156q-22 69 -22 164q0 236 179 404q180 168 528 168h353q152 0 366 12l-78 -186q-45 -112 -85 -112q-16 0 -18 4q13 36 13 72 q0 53 -44 76q-44 24 -214 24h-97h-143l-54 -480h212q187 0 271 17q-120 -144 -226 -144q-87 0 -269 17l-20 -174q-22 -166 -107 -242t-143 -102q328 -33 504 -33q140 0 227 36q88 36 169 108q19 -11 19 -35q0 -50 -150 -147q-149 -97 -310 -97q-154 0 -499 31t-483 40z M932 1785l80 81q87 -199 208 -276l-90 -92q-113 86 -198 287zM1052 1498zM1052 1498zM1078 0z" />
<glyph unicode="&#xc9;" horiz-adv-x="1497" d="M0 1386zM26 29l182 139q59 -15 230 -33q94 32 135 98q42 66 58 198l90 803h-52q-192 0 -299 -83q-107 -82 -107 -201q0 -116 46 -186l-162 -156q-22 69 -22 164q0 236 179 404q180 168 528 168h353q152 0 366 12l-78 -186q-45 -112 -85 -112q-16 0 -18 4q13 36 13 72 q0 53 -44 76q-44 24 -214 24h-97h-143l-54 -480h212q187 0 271 17q-120 -144 -226 -144q-87 0 -269 17l-20 -174q-22 -166 -107 -242t-143 -102q328 -33 504 -33q140 0 227 36q88 36 169 108q19 -11 19 -35q0 -50 -150 -147q-149 -97 -310 -97q-154 0 -499 31t-483 40z M935 1498l115 208q182 76 253 160q19 -38 19 -56q0 -99 -387 -312zM1052 1498zM1052 1498zM1078 0z" />
<glyph unicode="&#xca;" horiz-adv-x="1497" d="M0 1386zM26 29l182 139q59 -15 230 -33q94 32 135 98q42 66 58 198l90 803h-52q-192 0 -299 -83q-107 -82 -107 -201q0 -116 46 -186l-162 -156q-22 69 -22 164q0 236 179 404q180 168 528 168h353q152 0 366 12l-78 -186q-45 -112 -85 -112q-16 0 -18 4q13 36 13 72 q0 53 -44 76q-44 24 -214 24h-97h-143l-54 -480h212q187 0 271 17q-120 -144 -226 -144q-87 0 -269 17l-20 -174q-22 -166 -107 -242t-143 -102q328 -33 504 -33q140 0 227 36q88 36 169 108q19 -11 19 -35q0 -50 -150 -147q-149 -97 -310 -97q-154 0 -499 31t-483 40z M857 1498l51 120q36 16 88 69t72 92l80 87q42 -178 160 -280l-83 -88q-88 77 -141 227q-123 -173 -227 -227zM1052 1498zM1052 1498zM1078 0z" />
<glyph unicode="&#xcb;" horiz-adv-x="1497" d="M0 1386zM26 29l182 139q59 -15 230 -33q94 32 135 98q42 66 58 198l90 803h-52q-192 0 -299 -83q-107 -82 -107 -201q0 -116 46 -186l-162 -156q-22 69 -22 164q0 236 179 404q180 168 528 168h353q152 0 366 12l-78 -186q-45 -112 -85 -112q-16 0 -18 4q13 36 13 72 q0 53 -44 76q-44 24 -214 24h-97h-143l-54 -480h212q187 0 271 17q-120 -144 -226 -144q-87 0 -269 17l-20 -174q-22 -166 -107 -242t-143 -102q328 -33 504 -33q140 0 227 36q88 36 169 108q19 -11 19 -35q0 -50 -150 -147q-149 -97 -310 -97q-154 0 -499 31t-483 40z M798 1611l120 112q61 -42 88 -113l-112 -112q-40 75 -96 113zM1052 1498zM1052 1498zM1078 0zM1118 1611l120 112q63 -42 88 -113l-112 -112q-38 75 -96 113z" />
<glyph unicode="&#xcc;" horiz-adv-x="936" d="M0 1386zM120 782q0 250 193 406t513 156h86q-39 -155 -59 -347l-54 -481q-17 -148 -36 -208t-60 -98q-68 -69 -154 -99l287 -15l-120 -117l-483 23l124 125l113 -12q127 80 156 320l88 788h-50q-211 0 -309 -75q-97 -74 -97 -192q0 -92 47 -178l-162 -154q-23 69 -23 158 zM620 0zM696 1785l80 81q87 -199 208 -276l-90 -92q-113 86 -198 287zM816 1498zM816 1498z" />
<glyph unicode="&#xcd;" horiz-adv-x="936" d="M0 1386zM120 782q0 250 193 406t513 156h86q-39 -155 -59 -347l-54 -481q-17 -148 -36 -208t-60 -98q-68 -69 -154 -99l287 -15l-120 -117l-483 23l124 125l113 -12q127 80 156 320l88 788h-50q-211 0 -309 -75q-97 -74 -97 -192q0 -92 47 -178l-162 -154q-23 69 -23 158 zM620 0zM699 1498l115 208q182 76 253 160q19 -38 19 -56q0 -99 -387 -312zM816 1498zM816 1498z" />
<glyph unicode="&#xce;" horiz-adv-x="936" d="M0 1386zM120 782q0 250 193 406t513 156h86q-39 -155 -59 -347l-54 -481q-17 -148 -36 -208t-60 -98q-68 -69 -154 -99l287 -15l-120 -117l-483 23l124 125l113 -12q127 80 156 320l88 788h-50q-211 0 -309 -75q-97 -74 -97 -192q0 -92 47 -178l-162 -154q-23 69 -23 158 zM620 0zM621 1498l51 120q36 16 88 69t72 92l80 87q42 -178 160 -280l-83 -88q-88 77 -141 227q-123 -173 -227 -227zM816 1498zM816 1498z" />
<glyph unicode="&#xcf;" horiz-adv-x="936" d="M0 1386zM120 782q0 250 193 406t513 156h86q-39 -155 -59 -347l-54 -481q-17 -148 -36 -208t-60 -98q-68 -69 -154 -99l287 -15l-120 -117l-483 23l124 125l113 -12q127 80 156 320l88 788h-50q-211 0 -309 -75q-97 -74 -97 -192q0 -92 47 -178l-162 -154q-23 69 -23 158 zM562 1611l120 112q61 -42 88 -113l-112 -112q-40 75 -96 113zM620 0zM816 1498zM816 1498zM882 1611l120 112q63 -42 88 -113l-112 -112q-38 75 -96 113z" />
<glyph unicode="&#xd0;" horiz-adv-x="1726" d="M122 771q0 300 236 457q236 158 673 158q720 0 720 -511q0 -357 -266 -627q-265 -269 -755 -269q-281 0 -531 41l139 147q63 -23 146 -35q62 47 83 93q28 58 46 203l23 202h-289l116 81h182l63 564q-223 -26 -336 -114q-112 -87 -112 -209q0 -93 47 -179l-165 -155 q-20 57 -20 153zM562 122q229 -28 410 -28q249 0 360 112q232 242 232 575q0 272 -179 394q-179 123 -465 123h-45l-66 -587h347l-119 -81h-237l-13 -117q-17 -147 -37 -207q-19 -52 -60 -91q-32 -31 -128 -93z" />
<glyph unicode="&#xd1;" horiz-adv-x="1806" d="M0 1386zM122 769q0 247 187 411q188 164 467 164q46 0 129 -6q-3 -33 -3 -53q0 -218 291 -541q204 -228 291 -370l100 729q69 393 249 566q181 174 367 174q102 0 173 -31l-149 -146q-92 52 -157 52q-155 0 -223 -122q-67 -121 -101 -297q-24 -123 -68 -481l-71 -585 l-129 -261q-28 105 -48 167q-20 63 -58 127q-70 118 -263 340q-206 234 -273 400l-57 -489q-17 -146 -37 -211q-18 -55 -57 -96q-57 -61 -103 -93l222 -21l-120 -117l-435 23l129 125l108 -10q67 52 91 92q38 65 54 200l91 808h-56q-403 0 -403 -271q0 -94 47 -181 l-163 -157q-22 70 -22 161zM1045 0zM1065 1522q0 55 55 128t106 73q38 0 112 -57q75 -56 108 -56q32 0 57 29t48 88q26 -10 26 -32q0 -55 -55 -128t-104 -73q-45 0 -120 56q-74 57 -110 57q-61 0 -97 -117q-26 21 -26 32zM1313 1498zM1313 1498z" />
<glyph unicode="&#xd2;" horiz-adv-x="1405" d="M151 510q0 355 236 615q237 261 557 261q210 0 331 -149t121 -403q0 -380 -245 -628t-553 -248q-207 0 -327 157t-120 395zM340 614q0 -238 104 -406q104 -167 272 -167q226 0 358 206q133 207 133 490q0 241 -107 404q-106 164 -276 164q-207 0 -346 -196 q-138 -196 -138 -495zM824 1785l80 81q87 -199 208 -276l-90 -92q-113 86 -198 287zM944 1498zM944 1498z" />
<glyph unicode="&#xd3;" horiz-adv-x="1405" d="M151 510q0 355 236 615q237 261 557 261q210 0 331 -149t121 -403q0 -380 -245 -628t-553 -248q-207 0 -327 157t-120 395zM340 614q0 -238 104 -406q104 -167 272 -167q226 0 358 206q133 207 133 490q0 241 -107 404q-106 164 -276 164q-207 0 -346 -196 q-138 -196 -138 -495zM827 1498l115 208q182 76 253 160q19 -38 19 -56q0 -99 -387 -312zM944 1498zM944 1498z" />
<glyph unicode="&#xd4;" horiz-adv-x="1405" d="M151 510q0 355 236 615q237 261 557 261q210 0 331 -149t121 -403q0 -380 -245 -628t-553 -248q-207 0 -327 157t-120 395zM340 614q0 -238 104 -406q104 -167 272 -167q226 0 358 206q133 207 133 490q0 241 -107 404q-106 164 -276 164q-207 0 -346 -196 q-138 -196 -138 -495zM749 1498l51 120q36 16 88 69t72 92l80 87q42 -178 160 -280l-83 -88q-88 77 -141 227q-123 -173 -227 -227zM944 1498zM944 1498z" />
<glyph unicode="&#xd5;" horiz-adv-x="1405" d="M151 510q0 355 236 615q237 261 557 261q210 0 331 -149t121 -403q0 -380 -245 -628t-553 -248q-207 0 -327 157t-120 395zM340 614q0 -238 104 -406q104 -167 272 -167q226 0 358 206q133 207 133 490q0 241 -107 404q-106 164 -276 164q-207 0 -346 -196 q-138 -196 -138 -495zM696 1522q0 55 55 128t106 73q38 0 112 -57q75 -56 108 -56q32 0 57 29t48 88q26 -10 26 -32q0 -55 -55 -128t-104 -73q-45 0 -120 56q-74 57 -110 57q-61 0 -97 -117q-26 21 -26 32zM944 1498zM944 1498z" />
<glyph unicode="&#xd6;" horiz-adv-x="1405" d="M151 510q0 355 236 615q237 261 557 261q210 0 331 -149t121 -403q0 -380 -245 -628t-553 -248q-207 0 -327 157t-120 395zM340 614q0 -238 104 -406q104 -167 272 -167q226 0 358 206q133 207 133 490q0 241 -107 404q-106 164 -276 164q-207 0 -346 -196 q-138 -196 -138 -495zM690 1611l120 112q61 -42 88 -113l-112 -112q-40 75 -96 113zM944 1498zM944 1498zM1010 1611l120 112q63 -42 88 -113l-112 -112q-38 75 -96 113z" />
<glyph unicode="&#xd7;" d="M96 -37l85 194l333 302q-199 289 -308 491l123 85q115 -238 295 -479l512 483l-71 -173l-389 -367q172 -240 374 -438l-111 -100q-197 185 -376 432z" />
<glyph unicode="&#xd8;" horiz-adv-x="1405" d="M-21 -123l255 274q-96 148 -96 358q0 359 239 618t557 259q200 0 322 -146l137 148l177 86l-275 -290q88 -144 88 -349q0 -370 -243 -624q-243 -253 -554 -253q-192 0 -313 139l-135 -141zM327 612q0 -168 54 -304l735 785q-110 212 -305 212q-207 0 -346 -197 q-138 -196 -138 -496zM412 242q109 -201 293 -201q223 0 356 206t133 489q0 156 -48 287z" />
<glyph unicode="&#xd9;" horiz-adv-x="1749" d="M0 1386zM128 782q0 267 201 414q202 148 488 148h151q-80 -153 -141 -389q-61 -235 -61 -478q0 -409 256 -409q169 0 265 151q74 118 103 246q30 128 52 340l52 474l200 102q-46 -144 -72 -395l-41 -386q-28 -256 -28 -329q0 -104 76 -104q49 0 135 48q4 -15 4 -31 q0 -28 -64 -59l-343 -167l36 336q-210 -336 -459 -336q-346 0 -346 509q0 372 166 756h-100q-392 0 -392 -267q0 -94 46 -178l-162 -154q-22 69 -22 158zM1175 1785l80 81q87 -199 208 -276l-90 -92q-113 86 -198 287zM1295 1498zM1295 1498zM1437 0z" />
<glyph unicode="&#xda;" horiz-adv-x="1749" d="M0 1386zM128 782q0 267 201 414q202 148 488 148h151q-80 -153 -141 -389q-61 -235 -61 -478q0 -409 256 -409q169 0 265 151q74 118 103 246q30 128 52 340l52 474l200 102q-46 -144 -72 -395l-41 -386q-28 -256 -28 -329q0 -104 76 -104q49 0 135 48q4 -15 4 -31 q0 -28 -64 -59l-343 -167l36 336q-210 -336 -459 -336q-346 0 -346 509q0 372 166 756h-100q-392 0 -392 -267q0 -94 46 -178l-162 -154q-22 69 -22 158zM1178 1498l115 208q182 76 253 160q19 -38 19 -56q0 -99 -387 -312zM1295 1498zM1295 1498zM1437 0z" />
<glyph unicode="&#xdb;" horiz-adv-x="1749" d="M0 1386zM128 782q0 267 201 414q202 148 488 148h151q-80 -153 -141 -389q-61 -235 -61 -478q0 -409 256 -409q169 0 265 151q74 118 103 246q30 128 52 340l52 474l200 102q-46 -144 -72 -395l-41 -386q-28 -256 -28 -329q0 -104 76 -104q49 0 135 48q4 -15 4 -31 q0 -28 -64 -59l-343 -167l36 336q-210 -336 -459 -336q-346 0 -346 509q0 372 166 756h-100q-392 0 -392 -267q0 -94 46 -178l-162 -154q-22 69 -22 158zM1100 1498l51 120q36 16 88 69t72 92l80 87q42 -178 160 -280l-83 -88q-88 77 -141 227q-123 -173 -227 -227z M1295 1498zM1295 1498zM1437 0z" />
<glyph unicode="&#xdc;" horiz-adv-x="1749" d="M0 1386zM128 782q0 267 201 414q202 148 488 148h151q-80 -153 -141 -389q-61 -235 -61 -478q0 -409 256 -409q169 0 265 151q74 118 103 246q30 128 52 340l52 474l200 102q-46 -144 -72 -395l-41 -386q-28 -256 -28 -329q0 -104 76 -104q49 0 135 48q4 -15 4 -31 q0 -28 -64 -59l-343 -167l36 336q-210 -336 -459 -336q-346 0 -346 509q0 372 166 756h-100q-392 0 -392 -267q0 -94 46 -178l-162 -154q-22 69 -22 158zM1041 1611l120 112q61 -42 88 -113l-112 -112q-40 75 -96 113zM1295 1498zM1295 1498zM1361 1611l120 112 q63 -42 88 -113l-112 -112q-38 75 -96 113zM1437 0z" />
<glyph unicode="&#xdd;" horiz-adv-x="1321" d="M0 1386zM138 1168q0 64 74 141q75 77 150 77q142 0 262 -212q121 -211 156 -491q102 335 259 519q158 184 313 184q62 0 122 -39l-113 -155q-53 27 -94 27q-151 0 -307 -257t-174 -461q-13 -136 -36 -201q-17 -48 -56 -88q-38 -40 -148 -102l304 -14l-118 -117l-538 23 l138 125l118 -10q176 85 176 439q0 172 -55 347q-45 140 -115 247q-69 107 -142 107q-86 0 -143 -128q-33 0 -33 39zM699 1498l115 208q182 76 253 160q19 -38 19 -56q0 -99 -387 -312zM816 1498zM816 1498z" />
<glyph unicode="&#xde;" horiz-adv-x="1155" d="M15 2l129 125l108 -12q84 68 111 155q28 87 48 264l55 491q37 351 214 584q177 234 428 234q112 0 172 -31l-146 -146q-82 58 -165 58q-117 0 -206 -124q-89 -123 -119 -419q49 2 88 2q455 0 455 -287q0 -421 -624 -462q-10 -162 -84 -227q-73 -65 -148 -97l271 -14 l-120 -117zM575 540q69 -12 150 -12q333 0 333 271q0 292 -421 292z" />
<glyph unicode="&#xdf;" horiz-adv-x="1180" d="M-465 -805l132 122q101 -32 162 -32q151 0 236 113q85 114 126 481l128 1149q39 341 208 544q169 204 428 204q102 0 173 -61q71 -60 71 -154q0 -98 -91 -219q-47 -64 -193 -212t-146 -227q0 -87 173 -282q173 -194 173 -336q0 -128 -118 -219q-118 -90 -264 -90 q-114 0 -210 53l134 113q63 -80 194 -80q142 0 142 131q0 113 -185 321t-185 312q0 106 207 292q208 187 208 354q0 193 -198 193q-120 0 -229 -84t-148 -433l-128 -1261q-43 -360 -243 -540q-200 -179 -432 -179q-59 0 -125 27z" />
<glyph unicode="&#xe0;" horiz-adv-x="1069" d="M106 205q0 291 193 519q194 228 478 228q113 0 180 -27q-23 -76 -36 -161l-72 -508q-10 -69 -10 -105q0 -45 25 -45q81 0 172 190q26 -21 26 -33q0 -44 -103 -166q-102 -121 -200 -121q-73 0 -73 94q0 33 8 84l33 238q-68 -119 -213 -268q-144 -148 -270 -148 q-138 0 -138 229zM269 261q0 -137 78 -137q106 0 246 173q141 173 173 381l18 124q-89 51 -191 51q-136 0 -230 -174q-94 -173 -94 -418zM571 1367l80 81q87 -199 208 -276l-90 -92q-113 86 -198 287zM691 1080zM691 1080zM789 0z" />
<glyph unicode="&#xe1;" horiz-adv-x="1069" d="M106 205q0 291 193 519q194 228 478 228q113 0 180 -27q-23 -76 -36 -161l-72 -508q-10 -69 -10 -105q0 -45 25 -45q81 0 172 190q26 -21 26 -33q0 -44 -103 -166q-102 -121 -200 -121q-73 0 -73 94q0 33 8 84l33 238q-68 -119 -213 -268q-144 -148 -270 -148 q-138 0 -138 229zM269 261q0 -137 78 -137q106 0 246 173q141 173 173 381l18 124q-89 51 -191 51q-136 0 -230 -174q-94 -173 -94 -418zM574 1080l115 208q182 76 253 160q19 -38 19 -56q0 -99 -387 -312zM691 1080zM691 1080zM789 0z" />
<glyph unicode="&#xe2;" horiz-adv-x="1069" d="M106 205q0 291 193 519q194 228 478 228q113 0 180 -27q-23 -76 -36 -161l-72 -508q-10 -69 -10 -105q0 -45 25 -45q81 0 172 190q26 -21 26 -33q0 -44 -103 -166q-102 -121 -200 -121q-73 0 -73 94q0 33 8 84l33 238q-68 -119 -213 -268q-144 -148 -270 -148 q-138 0 -138 229zM269 261q0 -137 78 -137q106 0 246 173q141 173 173 381l18 124q-89 51 -191 51q-136 0 -230 -174q-94 -173 -94 -418zM496 1080l51 120q36 16 88 69t72 92l80 87q42 -178 160 -280l-83 -88q-88 77 -141 227q-123 -173 -227 -227zM691 1080zM691 1080z M789 0z" />
<glyph unicode="&#xe3;" horiz-adv-x="1069" d="M106 205q0 291 193 519q194 228 478 228q113 0 180 -27q-23 -76 -36 -161l-72 -508q-10 -69 -10 -105q0 -45 25 -45q81 0 172 190q26 -21 26 -33q0 -44 -103 -166q-102 -121 -200 -121q-73 0 -73 94q0 33 8 84l33 238q-68 -119 -213 -268q-144 -148 -270 -148 q-138 0 -138 229zM269 261q0 -137 78 -137q106 0 246 173q141 173 173 381l18 124q-89 51 -191 51q-136 0 -230 -174q-94 -173 -94 -418zM443 1104q0 55 55 128t106 73q38 0 112 -57q75 -56 108 -56q32 0 57 29t48 88q26 -10 26 -32q0 -55 -55 -128t-104 -73q-45 0 -120 56 q-74 57 -110 57q-61 0 -97 -117q-26 21 -26 32zM691 1080zM691 1080zM789 0z" />
<glyph unicode="&#xe4;" horiz-adv-x="1069" d="M106 205q0 291 193 519q194 228 478 228q113 0 180 -27q-23 -76 -36 -161l-72 -508q-10 -69 -10 -105q0 -45 25 -45q81 0 172 190q26 -21 26 -33q0 -44 -103 -166q-102 -121 -200 -121q-73 0 -73 94q0 33 8 84l33 238q-68 -119 -213 -268q-144 -148 -270 -148 q-138 0 -138 229zM269 261q0 -137 78 -137q106 0 246 173q141 173 173 381l18 124q-89 51 -191 51q-136 0 -230 -174q-94 -173 -94 -418zM437 1193l120 112q61 -42 88 -113l-112 -112q-40 75 -96 113zM691 1080zM691 1080zM757 1193l120 112q63 -42 88 -113l-112 -112 q-38 75 -96 113zM789 0z" />
<glyph unicode="&#xe5;" horiz-adv-x="1069" d="M106 205q0 291 193 519q194 228 478 228q113 0 180 -27q-23 -76 -36 -161l-72 -508q-10 -69 -10 -105q0 -45 25 -45q81 0 172 190q26 -21 26 -33q0 -44 -103 -166q-102 -121 -200 -121q-73 0 -73 94q0 33 8 84l33 238q-68 -119 -213 -268q-144 -148 -270 -148 q-138 0 -138 229zM269 261q0 -137 78 -137q106 0 246 173q141 173 173 381l18 124q-89 51 -191 51q-136 0 -230 -174q-94 -173 -94 -418zM520 1197q0 88 87 174q88 87 183 87q120 0 120 -121q0 -90 -91 -174q-91 -83 -179 -83q-120 0 -120 117zM606 1267q0 -113 114 -113 q107 0 107 114q0 113 -110 113q-111 0 -111 -114zM691 1080zM691 1080zM789 0z" />
<glyph unicode="&#xe6;" horiz-adv-x="1389" d="M106 205q0 288 199 517q199 230 472 230q113 0 179 -28q-25 -83 -36 -180q204 208 329 208q124 0 124 -131q0 -154 -150 -291q-149 -137 -346 -187q22 -237 195 -237q96 0 169 67q74 67 108 141q24 -25 24 -38q0 -50 -133 -175t-279 -125q-247 0 -247 288q0 38 14 128 q-69 -119 -193 -247q-167 -169 -291 -169q-138 0 -138 229zM269 261q0 -137 79 -137q104 0 243 169q140 170 167 344l28 165q-89 51 -192 51q-136 0 -231 -174q-94 -173 -94 -418zM881 467q31 -11 59 -11q110 0 209 70t99 179q0 117 -115 117q-88 0 -159 -96t-93 -259z" />
<glyph unicode="&#xe7;" horiz-adv-x="784" d="M103 270q0 263 176 472q177 210 386 210q85 0 133 -27l-115 -133q-85 30 -147 30q-123 0 -203 -105q-79 -104 -79 -302q0 -147 56 -225q56 -77 138 -77q77 0 133 54t97 145q22 -25 22 -43q0 -84 -122 -189q-122 -104 -237 -104q-117 0 -178 89q-60 89 -60 205zM151 -408 q182 18 182 118q0 92 -128 117l96 173h80l-64 -96q128 -42 128 -155q0 -76 -76 -143t-164 -67q-44 0 -54 53zM350 0zM350 0zM624 1080z" />
<glyph unicode="&#xe8;" horiz-adv-x="762" d="M103 262q0 247 176 468q176 222 343 222q123 0 123 -131q0 -139 -143 -283q-142 -143 -353 -195q23 -237 193 -237q81 0 159 60t122 162q22 -27 22 -41q0 -58 -136 -185q-136 -126 -268 -126q-102 0 -170 78q-68 79 -68 208zM254 465q32 -11 55 -11q110 0 212 70 q102 71 102 180q0 118 -118 118q-86 0 -160 -104q-73 -103 -91 -253zM452 0zM462 1367l80 81q87 -199 208 -276l-90 -92q-113 86 -198 287zM582 1080zM582 1080z" />
<glyph unicode="&#xe9;" horiz-adv-x="762" d="M103 262q0 247 176 468q176 222 343 222q123 0 123 -131q0 -139 -143 -283q-142 -143 -353 -195q23 -237 193 -237q81 0 159 60t122 162q22 -27 22 -41q0 -58 -136 -185q-136 -126 -268 -126q-102 0 -170 78q-68 79 -68 208zM254 465q32 -11 55 -11q110 0 212 70 q102 71 102 180q0 118 -118 118q-86 0 -160 -104q-73 -103 -91 -253zM452 0zM465 1080l115 208q182 76 253 160q19 -38 19 -56q0 -99 -387 -312zM582 1080zM582 1080z" />
<glyph unicode="&#xea;" horiz-adv-x="762" d="M103 262q0 247 176 468q176 222 343 222q123 0 123 -131q0 -139 -143 -283q-142 -143 -353 -195q23 -237 193 -237q81 0 159 60t122 162q22 -27 22 -41q0 -58 -136 -185q-136 -126 -268 -126q-102 0 -170 78q-68 79 -68 208zM254 465q32 -11 55 -11q110 0 212 70 q102 71 102 180q0 118 -118 118q-86 0 -160 -104q-73 -103 -91 -253zM387 1080l51 120q36 16 88 69t72 92l80 87q42 -178 160 -280l-83 -88q-88 77 -141 227q-123 -173 -227 -227zM452 0zM582 1080zM582 1080z" />
<glyph unicode="&#xeb;" horiz-adv-x="762" d="M103 262q0 247 176 468q176 222 343 222q123 0 123 -131q0 -139 -143 -283q-142 -143 -353 -195q23 -237 193 -237q81 0 159 60t122 162q22 -27 22 -41q0 -58 -136 -185q-136 -126 -268 -126q-102 0 -170 78q-68 79 -68 208zM254 465q32 -11 55 -11q110 0 212 70 q102 71 102 180q0 118 -118 118q-86 0 -160 -104q-73 -103 -91 -253zM328 1193l120 112q61 -42 88 -113l-112 -112q-40 75 -96 113zM452 0zM582 1080zM582 1080zM648 1193l120 112q63 -42 88 -113l-112 -112q-38 75 -96 113z" />
<glyph unicode="&#xec;" horiz-adv-x="606" d="M118 682q0 60 107 165q108 105 187 105q73 0 73 -102q0 -20 -7 -64l-73 -513q-14 -99 -14 -126q0 -41 29 -41q77 0 172 190q24 -21 24 -33q0 -46 -108 -167q-108 -120 -193 -120q-75 0 -75 96q0 21 8 78l73 502q13 84 13 114q0 56 -28 56q-74 0 -169 -174q-19 22 -19 34z M308 1367l80 81q87 -199 208 -276l-90 -92q-113 86 -198 287zM428 1080zM428 1080z" />
<glyph unicode="&#xed;" horiz-adv-x="606" d="M118 682q0 60 107 165q108 105 187 105q73 0 73 -102q0 -20 -7 -64l-73 -513q-14 -99 -14 -126q0 -41 29 -41q77 0 172 190q24 -21 24 -33q0 -46 -108 -167q-108 -120 -193 -120q-75 0 -75 96q0 21 8 78l73 502q13 84 13 114q0 56 -28 56q-74 0 -169 -174q-19 22 -19 34z M311 1080l115 208q182 76 253 160q19 -38 19 -56q0 -99 -387 -312zM428 1080zM428 1080z" />
<glyph unicode="&#xee;" horiz-adv-x="606" d="M118 682q0 60 107 165q108 105 187 105q73 0 73 -102q0 -20 -7 -64l-73 -513q-14 -99 -14 -126q0 -41 29 -41q77 0 172 190q24 -21 24 -33q0 -46 -108 -167q-108 -120 -193 -120q-75 0 -75 96q0 21 8 78l73 502q13 84 13 114q0 56 -28 56q-74 0 -169 -174q-19 22 -19 34z M233 1080l51 120q36 16 88 69t72 92l80 87q42 -178 160 -280l-83 -88q-88 77 -141 227q-123 -173 -227 -227zM428 1080zM428 1080z" />
<glyph unicode="&#xef;" horiz-adv-x="606" d="M118 682q0 60 107 165q108 105 187 105q73 0 73 -102q0 -20 -7 -64l-73 -513q-14 -99 -14 -126q0 -41 29 -41q77 0 172 190q24 -21 24 -33q0 -46 -108 -167q-108 -120 -193 -120q-75 0 -75 96q0 21 8 78l73 502q13 84 13 114q0 56 -28 56q-74 0 -169 -174q-19 22 -19 34z M174 1193l120 112q61 -42 88 -113l-112 -112q-40 75 -96 113zM428 1080zM428 1080zM494 1193l120 112q63 -42 88 -113l-112 -112q-38 75 -96 113z" />
<glyph unicode="&#xf0;" horiz-adv-x="961" d="M103 292q0 237 168 448q168 212 380 212q81 0 147 -22q0 238 -57 397l-375 -182l10 77l343 169q-36 107 -96 182q-59 75 -136 75q-75 0 -134 -64q-58 -63 -72 -112q-34 16 -34 39q0 74 114 169q114 96 222 96q185 0 293 -316l338 165l-10 -80l-311 -149q49 -169 49 -444 q0 -481 -183 -729q-183 -247 -391 -247q-124 0 -195 90q-70 91 -70 226zM254 440q0 -353 217 -353q146 0 227 190q82 191 86 518q-87 57 -205 57q-159 0 -242 -116q-83 -115 -83 -296z" />
<glyph unicode="&#xf1;" horiz-adv-x="1155" d="M96 682q0 58 109 164q110 106 172 106q86 0 86 -109q0 -31 -4 -60l-26 -231q101 153 246 276q146 124 254 124q95 0 95 -133q0 -39 -5 -73l-59 -405q-18 -125 -18 -187q0 -56 27 -56q76 0 173 182q24 -19 24 -31q0 -66 -112 -170q-111 -103 -183 -103q-77 0 -77 108 q0 76 10 147l53 383q9 66 9 120q0 83 -53 83q-124 0 -257 -168q-133 -167 -158 -377l-28 -234l-146 -62l75 688q7 55 7 89q0 69 -29 69q-70 0 -163 -174q-22 26 -22 34zM461 1104q0 55 55 128t106 73q38 0 112 -57q75 -56 108 -56q32 0 57 29t48 88q26 -10 26 -32 q0 -55 -55 -128t-104 -73q-45 0 -120 56q-74 57 -110 57q-61 0 -97 -117q-26 21 -26 32zM615 0zM709 1080zM709 1080z" />
<glyph unicode="&#xf2;" horiz-adv-x="879" d="M103 270q0 250 178 466t369 216q231 0 231 -290q0 -252 -180 -469q-179 -217 -367 -217q-231 0 -231 294zM257 402q0 -313 193 -313q112 0 194 120q83 120 83 319q0 311 -193 311q-113 0 -195 -117t-82 -320zM512 1367l80 81q87 -199 208 -276l-90 -92q-113 86 -198 287z M632 1080zM632 1080z" />
<glyph unicode="&#xf3;" horiz-adv-x="879" d="M103 270q0 250 178 466t369 216q231 0 231 -290q0 -252 -180 -469q-179 -217 -367 -217q-231 0 -231 294zM257 402q0 -313 193 -313q112 0 194 120q83 120 83 319q0 311 -193 311q-113 0 -195 -117t-82 -320zM515 1080l115 208q182 76 253 160q19 -38 19 -56 q0 -99 -387 -312zM632 1080zM632 1080z" />
<glyph unicode="&#xf4;" horiz-adv-x="879" d="M103 270q0 250 178 466t369 216q231 0 231 -290q0 -252 -180 -469q-179 -217 -367 -217q-231 0 -231 294zM257 402q0 -313 193 -313q112 0 194 120q83 120 83 319q0 311 -193 311q-113 0 -195 -117t-82 -320zM437 1080l51 120q36 16 88 69t72 92l80 87q42 -178 160 -280 l-83 -88q-88 77 -141 227q-123 -173 -227 -227zM632 1080zM632 1080z" />
<glyph unicode="&#xf5;" horiz-adv-x="879" d="M103 270q0 250 178 466t369 216q231 0 231 -290q0 -252 -180 -469q-179 -217 -367 -217q-231 0 -231 294zM257 402q0 -313 193 -313q112 0 194 120q83 120 83 319q0 311 -193 311q-113 0 -195 -117t-82 -320zM384 1104q0 55 55 128t106 73q38 0 112 -57q75 -56 108 -56 q32 0 57 29t48 88q26 -10 26 -32q0 -55 -55 -128t-104 -73q-45 0 -120 56q-74 57 -110 57q-61 0 -97 -117q-26 21 -26 32zM632 1080zM632 1080z" />
<glyph unicode="&#xf6;" horiz-adv-x="879" d="M103 270q0 250 178 466t369 216q231 0 231 -290q0 -252 -180 -469q-179 -217 -367 -217q-231 0 -231 294zM257 402q0 -313 193 -313q112 0 194 120q83 120 83 319q0 311 -193 311q-113 0 -195 -117t-82 -320zM378 1193l120 112q61 -42 88 -113l-112 -112q-40 75 -96 113z M632 1080zM632 1080zM698 1193l120 112q63 -42 88 -113l-112 -112q-38 75 -96 113z" />
<glyph unicode="&#xf7;" d="M96 446l119 123h937l-121 -123h-935zM443 141l150 145q26 -19 63 -67q37 -47 52 -78l-146 -143q-48 95 -119 143zM528 872l152 145q26 -19 63 -67q37 -47 50 -78l-146 -143q-50 95 -119 143z" />
<glyph unicode="&#xf8;" horiz-adv-x="879" d="M9 -79l129 159q-35 70 -35 187q0 243 175 464q176 221 373 221q103 0 161 -55l47 55l120 60l-134 -165q36 -71 36 -185q0 -255 -180 -471q-180 -215 -368 -215q-104 0 -160 61l-49 -61zM257 402q0 -91 17 -157l415 502q-48 92 -154 92q-113 0 -196 -120 q-82 -119 -82 -317zM294 182q48 -93 156 -93t192 119q85 119 85 323q0 88 -18 153z" />
<glyph unicode="&#xf9;" horiz-adv-x="1149" d="M0 952zM88 679q0 67 110 170t178 103q82 0 82 -115q0 -23 -13 -145l-39 -379q-10 -99 -10 -124q0 -76 49 -76q164 0 350 318q64 113 83 249l33 222l163 55q-29 -101 -41 -184l-62 -410q-22 -148 -22 -214q0 -43 27 -43q77 0 175 190q24 -29 24 -35q0 -47 -110 -166 q-109 -119 -193 -119q-76 0 -76 99q0 43 8 97l33 220q-87 -135 -238 -276q-151 -140 -255 -140q-102 0 -102 131q0 27 6 83l35 330q21 193 21 237q0 58 -33 58q-78 0 -161 -167q-22 16 -22 31zM596 1367l80 81q87 -199 208 -276l-90 -92q-113 86 -198 287zM716 1080z M716 1080zM931 0z" />
<glyph unicode="&#xfa;" horiz-adv-x="1149" d="M0 952zM88 679q0 67 110 170t178 103q82 0 82 -115q0 -23 -13 -145l-39 -379q-10 -99 -10 -124q0 -76 49 -76q164 0 350 318q64 113 83 249l33 222l163 55q-29 -101 -41 -184l-62 -410q-22 -148 -22 -214q0 -43 27 -43q77 0 175 190q24 -29 24 -35q0 -47 -110 -166 q-109 -119 -193 -119q-76 0 -76 99q0 43 8 97l33 220q-87 -135 -238 -276q-151 -140 -255 -140q-102 0 -102 131q0 27 6 83l35 330q21 193 21 237q0 58 -33 58q-78 0 -161 -167q-22 16 -22 31zM599 1080l115 208q182 76 253 160q19 -38 19 -56q0 -99 -387 -312zM716 1080z M716 1080zM931 0z" />
<glyph unicode="&#xfb;" horiz-adv-x="1149" d="M0 952zM88 679q0 67 110 170t178 103q82 0 82 -115q0 -23 -13 -145l-39 -379q-10 -99 -10 -124q0 -76 49 -76q164 0 350 318q64 113 83 249l33 222l163 55q-29 -101 -41 -184l-62 -410q-22 -148 -22 -214q0 -43 27 -43q77 0 175 190q24 -29 24 -35q0 -47 -110 -166 q-109 -119 -193 -119q-76 0 -76 99q0 43 8 97l33 220q-87 -135 -238 -276q-151 -140 -255 -140q-102 0 -102 131q0 27 6 83l35 330q21 193 21 237q0 58 -33 58q-78 0 -161 -167q-22 16 -22 31zM521 1080l51 120q36 16 88 69t72 92l80 87q42 -178 160 -280l-83 -88 q-88 77 -141 227q-123 -173 -227 -227zM716 1080zM716 1080zM931 0z" />
<glyph unicode="&#xfc;" horiz-adv-x="1149" d="M0 952zM88 679q0 67 110 170t178 103q82 0 82 -115q0 -23 -13 -145l-39 -379q-10 -99 -10 -124q0 -76 49 -76q164 0 350 318q64 113 83 249l33 222l163 55q-29 -101 -41 -184l-62 -410q-22 -148 -22 -214q0 -43 27 -43q77 0 175 190q24 -29 24 -35q0 -47 -110 -166 q-109 -119 -193 -119q-76 0 -76 99q0 43 8 97l33 220q-87 -135 -238 -276q-151 -140 -255 -140q-102 0 -102 131q0 27 6 83l35 330q21 193 21 237q0 58 -33 58q-78 0 -161 -167q-22 16 -22 31zM462 1193l120 112q61 -42 88 -113l-112 -112q-40 75 -96 113zM716 1080z M716 1080zM782 1193l120 112q63 -42 88 -113l-112 -112q-38 75 -96 113zM931 0z" />
<glyph unicode="&#xfd;" horiz-adv-x="1110" d="M-62 -801l122 139q106 -48 196 -48q178 0 291 112q114 113 190 495l97 495q-72 -127 -189 -272q-117 -144 -200 -144q-97 0 -107 211l-22 428q-6 124 -14 172t-43 48q-80 0 -153 -144q-24 12 -24 39q0 52 91 137q92 85 166 85q53 0 80 -50q28 -49 37 -187l19 -372 q9 -199 62 -199q76 0 196 176q121 177 153 344l45 228l175 62q-39 -110 -54 -188l-145 -719q-90 -454 -311 -667q-220 -212 -503 -212q-87 0 -155 31zM0 952zM581 1080l115 208q182 76 253 160q19 -38 19 -56q0 -99 -387 -312zM698 1080zM698 1080z" />
<glyph unicode="&#xfe;" horiz-adv-x="1020" d="M-432 -817l144 140q55 -16 107 -16q118 0 217 91q100 92 124 333l128 1294q31 308 230 529q200 222 442 222q56 0 96 -12l-144 -143q-55 16 -102 16q-172 0 -255 -141q-83 -140 -107 -384l-63 -576q74 136 208 276t259 140q140 0 140 -249q0 -275 -182 -497 q-182 -221 -436 -221h-46l-8 -77q-36 -330 -235 -535q-198 -205 -420 -205q-45 0 -97 15zM345 135q89 -51 180 -51q141 0 222 161q82 162 82 403q0 158 -79 158q-105 0 -236 -166q-130 -165 -155 -388z" />
<glyph unicode="&#xff;" horiz-adv-x="1110" d="M-62 -801l122 139q106 -48 196 -48q178 0 291 112q114 113 190 495l97 495q-72 -127 -189 -272q-117 -144 -200 -144q-97 0 -107 211l-22 428q-6 124 -14 172t-43 48q-80 0 -153 -144q-24 12 -24 39q0 52 91 137q92 85 166 85q53 0 80 -50q28 -49 37 -187l19 -372 q9 -199 62 -199q76 0 196 176q121 177 153 344l45 228l175 62q-39 -110 -54 -188l-145 -719q-90 -454 -311 -667q-220 -212 -503 -212q-87 0 -155 31zM0 952zM444 1193l120 112q61 -42 88 -113l-112 -112q-40 75 -96 113zM698 1080zM698 1080zM764 1193l120 112 q63 -42 88 -113l-112 -112q-38 75 -96 113z" />
<glyph unicode="&#x152;" horiz-adv-x="2054" d="M151 510q0 349 235 612q235 264 558 264q114 0 197 -44q84 -44 144 -111l199 113h270q162 0 365 12l-80 -187q-47 -111 -86 -111q-10 0 -16 2q13 37 13 77q0 48 -39 72q-39 25 -149 25h-318l-55 -480h219q191 0 273 17q-127 -144 -218 -144q-47 0 -139 8q-91 9 -145 9 q-25 -221 -108 -326q-82 -104 -191 -188q384 -37 532 -37q146 0 246 39t170 105q17 -11 17 -33q0 -44 -156 -145q-155 -101 -332 -101q-79 0 -349 20t-343 20q-86 -40 -220 -40q-251 0 -373 149q-121 150 -121 403zM340 614q0 -535 407 -573l152 114l84 -12q233 193 233 590 q0 252 -112 412t-285 160q-191 0 -335 -195q-144 -194 -144 -496z" />
<glyph unicode="&#x153;" horiz-adv-x="1358" d="M103 270q0 237 174 459q174 223 376 223q178 0 229 -234q170 234 344 234q124 0 124 -131q0 -154 -150 -291q-149 -137 -346 -187q22 -237 195 -237q101 0 173 74q72 75 104 141q22 -26 22 -40q0 -42 -128 -174q-127 -131 -285 -131q-185 0 -224 234q-186 -234 -368 -234 q-240 0 -240 294zM257 402q0 -313 193 -313q114 0 195 121q82 122 82 318q0 311 -193 311q-111 0 -194 -117t-83 -320zM859 466q31 -10 59 -10q107 0 207 70t100 179q0 117 -114 117q-77 0 -153 -89q-75 -89 -99 -267z" />
<glyph unicode="&#x178;" horiz-adv-x="1321" d="M0 1386zM138 1168q0 64 74 141q75 77 150 77q142 0 262 -212q121 -211 156 -491q102 335 259 519q158 184 313 184q62 0 122 -39l-113 -155q-53 27 -94 27q-151 0 -307 -257t-174 -461q-13 -136 -36 -201q-17 -48 -56 -88q-38 -40 -148 -102l304 -14l-118 -117l-538 23 l138 125l118 -10q176 85 176 439q0 172 -55 347q-45 140 -115 247q-69 107 -142 107q-86 0 -143 -128q-33 0 -33 39zM562 1611l120 112q61 -42 88 -113l-112 -112q-40 75 -96 113zM816 1498zM816 1498zM882 1611l120 112q63 -42 88 -113l-112 -112q-38 75 -96 113z" />
<glyph unicode="&#x2c6;" horiz-adv-x="913" d="M445 1088l51 120q36 16 88 69t72 92l80 87q42 -178 160 -280l-83 -88q-88 77 -141 227q-123 -173 -227 -227zM640 1088z" />
<glyph unicode="&#x2dc;" horiz-adv-x="913" d="M384 1112q0 55 55 128t106 73q38 0 112 -57q75 -56 108 -56q32 0 57 29t48 88q26 -10 26 -32q0 -55 -55 -128t-104 -73q-45 0 -120 56q-74 57 -110 57q-61 0 -97 -117q-26 21 -26 32zM632 1088z" />
<glyph unicode="&#x2000;" horiz-adv-x="938" />
<glyph unicode="&#x2001;" horiz-adv-x="1876" />
<glyph unicode="&#x2002;" horiz-adv-x="938" />
<glyph unicode="&#x2003;" horiz-adv-x="1876" />
<glyph unicode="&#x2004;" horiz-adv-x="625" />
<glyph unicode="&#x2005;" horiz-adv-x="469" />
<glyph unicode="&#x2006;" horiz-adv-x="312" />
<glyph unicode="&#x2007;" horiz-adv-x="312" />
<glyph unicode="&#x2008;" horiz-adv-x="234" />
<glyph unicode="&#x2009;" horiz-adv-x="375" />
<glyph unicode="&#x200a;" horiz-adv-x="104" />
<glyph unicode="&#x2010;" horiz-adv-x="741" d="M128 420l124 129h468l-128 -129h-464z" />
<glyph unicode="&#x2011;" horiz-adv-x="741" d="M128 420l124 129h468l-128 -129h-464z" />
<glyph unicode="&#x2012;" horiz-adv-x="741" d="M128 420l124 129h468l-128 -129h-464z" />
<glyph unicode="&#x2013;" horiz-adv-x="879" d="M112 464l8 116h776l-8 -116h-776z" />
<glyph unicode="&#x2014;" horiz-adv-x="1757" d="M112 464l8 116h1656l-8 -116h-1656z" />
<glyph unicode="&#x2018;" horiz-adv-x="424" d="M193 1034q0 188 269 387l24 -29q-153 -111 -153 -244q0 -114 116 -194l-137 -141q-119 94 -119 221z" />
<glyph unicode="&#x2019;" horiz-adv-x="424" d="M192 842q153 111 153 244q0 114 -116 194l137 141q119 -94 119 -221q0 -188 -269 -387z" />
<glyph unicode="&#x201a;" horiz-adv-x="424" d="M61 -342q153 111 153 244q0 114 -116 194l137 141q119 -94 119 -221q0 -188 -269 -387z" />
<glyph unicode="&#x201c;" horiz-adv-x="778" d="M197 1034q0 188 269 387l24 -29q-153 -111 -153 -244q0 -114 116 -194l-137 -141q-119 94 -119 221zM549 1034q0 188 269 387l24 -29q-153 -111 -153 -244q0 -114 116 -194l-137 -141q-119 94 -119 221z" />
<glyph unicode="&#x201d;" horiz-adv-x="778" d="M192 842q153 111 153 244q0 114 -116 194l137 141q119 -94 119 -221q0 -188 -269 -387zM544 842q153 111 153 244q0 114 -116 194l137 141q119 -94 119 -221q0 -188 -269 -387z" />
<glyph unicode="&#x201e;" horiz-adv-x="778" d="M61 -342q153 111 153 244q0 114 -116 194l137 141q119 -94 119 -221q0 -188 -269 -387zM413 -342q153 111 153 244q0 114 -116 194l137 141q119 -94 119 -221q0 -188 -269 -387z" />
<glyph unicode="&#x2022;" d="M276 653l414 397q78 -50 181 -183q104 -132 141 -217l-411 -400q-125 270 -325 403z" />
<glyph unicode="&#x2026;" horiz-adv-x="1757" d="M176 105l150 141q26 -17 62 -64q37 -47 52 -77l-145 -144q-48 94 -119 144zM768 105l150 141q26 -17 62 -64q37 -47 52 -77l-147 -144q-48 94 -117 144zM1360 105l150 141q26 -17 62 -64q37 -47 52 -77l-147 -144q-48 94 -117 144z" />
<glyph unicode="&#x202f;" horiz-adv-x="375" />
<glyph unicode="&#x2039;" horiz-adv-x="721" d="M74 528l91 -93l547 -384l-62 147l-436 257q118 62 196 132t176 200l-91 93q-154 -244 -421 -352z" />
<glyph unicode="&#x203a;" horiz-adv-x="721" d="M99 51l62 147l436 257q-118 62 -196 132t-176 200l91 93q154 -244 421 -352l-91 -93z" />
<glyph unicode="&#x205f;" horiz-adv-x="469" />
<glyph unicode="&#x20ac;" horiz-adv-x="1057" d="M33 413l58 65h138q6 58 21 112h-137l58 65h102q73 170 219 274q146 105 348 105q149 0 277 -53l-51 -120q-31 -67 -61 -67q-21 0 -25 4q7 18 7 45q0 41 -63 78q-63 38 -147 38q-307 0 -381 -304h506l-55 -65h-465q-8 -52 -8 -112h384l-55 -65h-327q7 -162 86 -249 t201 -87q88 0 176 49q89 50 129 113q21 30 25 30q21 0 21 -29q0 -43 -66 -110q-162 -156 -375 -156q-161 0 -255 115q-93 116 -93 324h-192z" />
<glyph unicode="&#x2122;" horiz-adv-x="1653" d="M202 1250q0 97 143 97q24 0 57 -2q34 -1 59 -1h232q41 0 72 7q32 7 53 33q14 -11 14 -19q0 -97 -148 -97h-124l-52 -423q-7 -51 -18 -60t-58 -22h160l-64 -59h-272l67 59h61q16 17 25 112l39 393h-119q-91 0 -117 -36q-10 5 -10 18zM736 704l40 59h56q19 16 33 108 l63 414h-73l48 59h169l140 -447l200 408l124 55q-15 -83 -28 -269q-13 -185 -13 -236q0 -111 50 -111q16 0 39 9q4 -6 4 -12q0 -13 -51 -35q-51 -21 -94 -21t-43 83q0 30 6 172t16 261l-216 -434l-54 -41l-157 495l-62 -371q-10 -55 -23 -69q-13 -13 -30 -18h96l-35 -59 h-205z" />
<glyph unicode="&#x25fc;" horiz-adv-x="950" d="M0 0v950h950v-950h-950z" />
<glyph unicode="&#xfb01;" horiz-adv-x="1098" d="M-456 -805l132 124q78 -32 152 -32q136 0 226 107t114 339l109 1078h-173l113 117h73l6 56q43 392 216 592q174 200 442 200q59 0 126 -10l-137 -141q-75 32 -139 32q-162 0 -238 -107q-75 -107 -110 -463l-17 -159h610q-21 -58 -33 -144l-77 -512q-12 -88 -12 -124 q0 -42 27 -42q83 0 180 192q26 -21 26 -33q0 -47 -110 -168q-109 -121 -199 -121q-75 0 -75 95q0 23 8 78l93 662h-448l-85 -796q-51 -484 -254 -666q-202 -181 -424 -181q-61 0 -122 27zM879 1081l85 208q111 42 186 124q10 -17 10 -29q0 -131 -281 -303z" />
<glyph unicode="&#xfb02;" horiz-adv-x="1214" d="M-456 -807l132 126q78 -32 152 -32q122 0 217 101q96 102 123 351l119 1072h-183l113 117h80l15 77q47 302 213 490q167 189 428 189q135 0 265 -49q184 141 342 141q45 0 96 -10l-146 -145q-63 16 -109 16q-142 0 -221 -104q-78 -104 -111 -338l-125 -866 q-12 -87 -12 -146q0 -76 31 -76q40 0 97 70q57 71 74 122q26 -23 26 -37q0 -71 -115 -179q-115 -107 -188 -107q-81 0 -81 107q0 65 18 193l114 798q16 118 70 240q54 123 105 187q-95 64 -257 64q-170 0 -252 -104q-82 -103 -118 -389l-19 -144h371l-120 -117h-261 l-83 -796q-51 -500 -256 -674q-205 -173 -422 -173q-61 0 -122 25z" />
</font>
</defs>
</svg>
