<svg id="Layer_1" enable-background="new 0 0 480 480" height="512" viewBox="0 0 480 480" width="512" xmlns="http://www.w3.org/2000/svg"><path d="m243.274 454.96 11.383 11.383c5.056 5.055 1.404 13.657-5.657 13.657-2.047 0-4.095-.781-5.657-2.343l-25-25c-3.125-3.124-3.125-8.189 0-11.313l25-25c3.124-3.124 8.189-3.124 11.313 0 3.125 3.124 3.125 8.189 0 11.313l-11.301 11.301c108.187-1.801 195.645-90.351 195.645-198.958 0-44.879-14.58-87.24-42.163-122.502-2.722-3.48-2.108-8.508 1.373-11.23 3.479-2.721 8.507-2.108 11.23 1.373 29.805 38.103 45.56 83.872 45.56 132.359 0 117.743-94.395 213.219-211.726 214.96zm140.002-356.362c7.164 0 10.751-8.798 5.525-13.787-3.625-3.47-8.605-2.935-11.482.056-5.07 5.271-.91 13.731 5.957 13.731zm-187.276 188.402h-24c-4.418 0-8 3.582-8 8s3.582 8 8 8h24c4.418 0 8-3.582 8-8s-3.582-8-8-8zm133 58c0-4.418-3.582-8-8-8h-162c-8.822 0-16-7.178-16-16v-162c0-8.822 7.178-16 16-16h41v56c0 6.028 6.432 9.891 11.753 7.065l28.247-15.007 28.247 15.006c5.324 2.829 11.753-1.041 11.753-7.064v-28c0-4.418-3.582-8-8-8s-8 3.582-8 8v14.691l-20.247-10.756c-2.348-1.247-5.159-1.247-7.507 0l-20.246 10.756v-42.691h105c8.822 0 16 7.178 16 16v142c0 4.418 3.582 8 8 8s8-3.582 8-8v-142c0-17.645-14.355-32-32-32h-162c-17.645 0-32 14.355-32 32v162c0 17.645 14.355 32 32 32h162c4.418 0 8-3.582 8-8zm-288-105c0-108.607 87.458-197.158 195.644-198.957l-11.301 11.301c-5.056 5.054-1.405 13.656 5.657 13.656 2.047 0 4.095-.781 5.657-2.343l25-25c3.125-3.124 3.125-8.189 0-11.313l-25-25c-3.124-3.124-8.189-3.124-11.313 0-3.125 3.124-3.125 8.189 0 11.313l11.383 11.383c-117.254 1.739-211.727 97.14-211.727 214.96 0 48.486 15.754 94.256 45.56 132.36 2.724 3.483 7.753 4.093 11.23 1.373 3.48-2.722 4.095-7.75 1.373-11.23-27.584-35.263-42.163-77.624-42.163-122.503zm49.936 143.878c-2.872 3.009-3.181 8.015.434 11.474 3.183 3.062 8.247 2.966 11.312-.22 3.063-3.185 2.964-8.249-.22-11.312-3.681-3.521-8.67-2.935-11.526.058z"/></svg>